# https://github.com/mikedh/trimesh
mtllib material.mtl
usemtl Screw
v -0.00070358 0.00084557 0.00296500
v -0.00070358 0.00084557 0.00296500
v -0.00070358 0.00084557 0.00296500
v -0.00032644 0.00105045 0.00296500
v -0.00032644 0.00105045 0.00296500
v -0.00032644 0.00105045 0.00296500
v -0.00031160 0.00100270 0.00295160
v -0.00031160 0.00100270 0.00295160
v -0.00031160 0.00100270 0.00295160
v -0.00031160 0.00100270 0.00295160
v -0.00030074 0.00096775 0.00291500
v -0.00030074 0.00096775 0.00291500
v -0.00030074 0.00096775 0.00291500
v -0.00030074 0.00096775 0.00291500
v 0.00009250 0.00100917 0.00291500
v 0.00009250 0.00100917 0.00291500
v 0.00009250 0.00100917 0.00291500
v -0.00029676 0.00095495 0.00286500
v -0.00029676 0.00095495 0.00286500
v -0.00029676 0.00095495 0.00286500
v -0.00029676 0.00095495 0.00286500
v 0.00009127 0.00099583 0.00286500
v 0.00009127 0.00099583 0.00286500
v 0.00009127 0.00099583 0.00286500
v 0.00009127 0.00099583 0.00286500
v 0.00009584 0.00104562 0.00295160
v 0.00009584 0.00104562 0.00295160
v 0.00009584 0.00104562 0.00295160
v 0.00009584 0.00104562 0.00295160
v 0.00010040 0.00109541 0.00296500
v 0.00010040 0.00109541 0.00296500
v 0.00047165 0.00089695 0.00291500
v 0.00047165 0.00089695 0.00291500
v 0.00047165 0.00089695 0.00291500
v 0.00047165 0.00089695 0.00291500
v 0.00046541 0.00088509 0.00286500
v 0.00046541 0.00088509 0.00286500
v 0.00046541 0.00088509 0.00286500
v 0.00046541 0.00088509 0.00286500
v 0.00048868 0.00092935 0.00295160
v 0.00048868 0.00092935 0.00295160
v 0.00048868 0.00092935 0.00295160
v 0.00048868 0.00092935 0.00295160
v 0.00051195 0.00097360 0.00296500
v 0.00051195 0.00097360 0.00296500
v 0.00077899 0.00064818 0.00291500
v 0.00077899 0.00064818 0.00291500
v 0.00077899 0.00064818 0.00291500
v 0.00077899 0.00064818 0.00291500
v 0.00076869 0.00063961 0.00286500
v 0.00076869 0.00063961 0.00286500
v 0.00076869 0.00063961 0.00286500
v 0.00076869 0.00063961 0.00286500
v 0.00080713 0.00067160 0.00295160
v 0.00080713 0.00067160 0.00295160
v 0.00080713 0.00067160 0.00295160
v 0.00084556 0.00070358 0.00296500
v 0.00084556 0.00070358 0.00296500
v 0.00084556 0.00070358 0.00296500
v 0.00096774 0.00030074 0.00291500
v 0.00096774 0.00030074 0.00291500
v 0.00096774 0.00030074 0.00291500
v 0.00095495 0.00029676 0.00286500
v 0.00095495 0.00029676 0.00286500
v 0.00095495 0.00029676 0.00286500
v 0.00095495 0.00029676 0.00286500
v 0.00099582 -0.00009127 0.00286500
v 0.00099582 -0.00009127 0.00286500
v 0.00099582 -0.00009127 0.00286500
v 0.00100270 0.00031160 0.00295160
v 0.00100270 0.00031160 0.00295160
v 0.00105045 0.00032644 0.00296500
v 0.00105045 0.00032644 0.00296500
v 0.00105045 0.00032644 0.00296500
v 0.00100917 -0.00009250 0.00291500
v 0.00100917 -0.00009250 0.00291500
v 0.00100917 -0.00009250 0.00291500
v 0.00109541 -0.00010040 0.00296500
v 0.00109541 -0.00010040 0.00296500
v 0.00104562 -0.00009584 0.00295160
v 0.00104562 -0.00009584 0.00295160
v 0.00089695 -0.00047165 0.00291500
v 0.00089695 -0.00047165 0.00291500
v 0.00089695 -0.00047165 0.00291500
v 0.00089695 -0.00047165 0.00291500
v 0.00088509 -0.00046541 0.00286500
v 0.00088509 -0.00046541 0.00286500
v 0.00088509 -0.00046541 0.00286500
v 0.00088509 -0.00046541 0.00286500
v 0.00097360 -0.00051195 0.00296500
v 0.00097360 -0.00051195 0.00296500
v 0.00092935 -0.00048868 0.00295160
v 0.00064818 -0.00077899 0.00291500
v 0.00064818 -0.00077899 0.00291500
v 0.00064818 -0.00077899 0.00291500
v 0.00064818 -0.00077899 0.00291500
v 0.00063961 -0.00076870 0.00286500
v 0.00063961 -0.00076870 0.00286500
v 0.00063961 -0.00076870 0.00286500
v 0.00063961 -0.00076870 0.00286500
v 0.00063961 -0.00076870 0.00286500
v 0.00070357 -0.00084557 0.00296500
v 0.00070357 -0.00084557 0.00296500
v 0.00070357 -0.00084557 0.00296500
v 0.00067159 -0.00080713 0.00295160
v 0.00067159 -0.00080713 0.00295160
v 0.00067159 -0.00080713 0.00295160
v 0.00029676 -0.00095495 0.00286500
v 0.00029676 -0.00095495 0.00286500
v 0.00029676 -0.00095495 0.00286500
v 0.00029676 -0.00095495 0.00286500
v 0.00030073 -0.00096775 0.00291500
v 0.00030073 -0.00096775 0.00291500
v 0.00030073 -0.00096775 0.00291500
v 0.00030073 -0.00096775 0.00291500
v -0.00009128 -0.00099583 0.00286500
v -0.00009128 -0.00099583 0.00286500
v -0.00009128 -0.00099583 0.00286500
v 0.00032643 -0.00105045 0.00296500
v 0.00032643 -0.00105045 0.00296500
v 0.00032643 -0.00105045 0.00296500
v 0.00031160 -0.00100270 0.00295160
v 0.00031160 -0.00100270 0.00295160
v 0.00031160 -0.00100270 0.00295160
v -0.00009250 -0.00100917 0.00291500
v -0.00009250 -0.00100917 0.00291500
v -0.00009250 -0.00100917 0.00291500
v -0.00009250 -0.00100917 0.00291500
v -0.00046541 -0.00088509 0.00286500
v -0.00046541 -0.00088509 0.00286500
v -0.00046541 -0.00088509 0.00286500
v -0.00046541 -0.00088509 0.00286500
v -0.00009584 -0.00104562 0.00295160
v -0.00009584 -0.00104562 0.00295160
v -0.00009584 -0.00104562 0.00295160
v -0.00009584 -0.00104562 0.00295160
v -0.00010040 -0.00109541 0.00296500
v -0.00010040 -0.00109541 0.00296500
v -0.00047165 -0.00089695 0.00291500
v -0.00047165 -0.00089695 0.00291500
v -0.00047165 -0.00089695 0.00291500
v -0.00047165 -0.00089695 0.00291500
v -0.00048868 -0.00092935 0.00295160
v -0.00051196 -0.00097360 0.00296500
v -0.00051196 -0.00097360 0.00296500
v -0.00077900 -0.00064818 0.00291500
v -0.00077900 -0.00064818 0.00291500
v -0.00077900 -0.00064818 0.00291500
v -0.00076870 -0.00063961 0.00286500
v -0.00076870 -0.00063961 0.00286500
v -0.00076870 -0.00063961 0.00286500
v -0.00080713 -0.00067160 0.00295160
v -0.00080713 -0.00067160 0.00295160
v -0.00080713 -0.00067160 0.00295160
v -0.00084557 -0.00070358 0.00296500
v -0.00084557 -0.00070358 0.00296500
v -0.00084557 -0.00070358 0.00296500
v -0.00096775 -0.00030074 0.00291500
v -0.00096775 -0.00030074 0.00291500
v -0.00096775 -0.00030074 0.00291500
v -0.00096775 -0.00030074 0.00291500
v -0.00096775 -0.00030074 0.00291500
v -0.00095495 -0.00029676 0.00286500
v -0.00095495 -0.00029676 0.00286500
v -0.00095495 -0.00029676 0.00286500
v -0.00095495 -0.00029676 0.00286500
v -0.00100270 -0.00031160 0.00295160
v -0.00100270 -0.00031160 0.00295160
v -0.00105045 -0.00032644 0.00296500
v -0.00105045 -0.00032644 0.00296500
v -0.00105045 -0.00032644 0.00296500
v -0.00100917 0.00009250 0.00291500
v -0.00100917 0.00009250 0.00291500
v -0.00100917 0.00009250 0.00291500
v -0.00100917 0.00009250 0.00291500
v -0.00099583 0.00009127 0.00286500
v -0.00099583 0.00009127 0.00286500
v -0.00099583 0.00009127 0.00286500
v -0.00109541 0.00010040 0.00296500
v -0.00109541 0.00010040 0.00296500
v -0.00104562 0.00009584 0.00295160
v -0.00104562 0.00009584 0.00295160
v -0.00089695 0.00047165 0.00291500
v -0.00089695 0.00047165 0.00291500
v -0.00089695 0.00047165 0.00291500
v -0.00089695 0.00047165 0.00291500
v -0.00088510 0.00046541 0.00286500
v -0.00088510 0.00046541 0.00286500
v -0.00088510 0.00046541 0.00286500
v -0.00088510 0.00046541 0.00286500
v -0.00097361 0.00051195 0.00296500
v -0.00097361 0.00051195 0.00296500
v -0.00092935 0.00048868 0.00295160
v -0.00092935 0.00048868 0.00295160
v -0.00092935 0.00048868 0.00295160
v -0.00063962 0.00076870 0.00286500
v -0.00063962 0.00076870 0.00286500
v -0.00063962 0.00076870 0.00286500
v -0.00064819 0.00077899 0.00291500
v -0.00064819 0.00077899 0.00291500
v -0.00067160 0.00080713 0.00295160
v -0.00067160 0.00080713 0.00295160
v 0.00095495 0.00029676 -0.00478962
v 0.00095495 0.00029676 -0.00478962
v 0.00095495 0.00029676 -0.00478962
v 0.00099582 -0.00009127 -0.00478962
v 0.00099582 -0.00009127 -0.00478962
v 0.00088509 -0.00046541 -0.00478962
v 0.00088509 -0.00046541 -0.00478962
v 0.00088509 -0.00046541 -0.00478962
v 0.00088509 -0.00046541 -0.00478962
v 0.00063961 -0.00076870 -0.00478962
v 0.00063961 -0.00076870 -0.00478962
v 0.00063961 -0.00076870 -0.00478962
v 0.00063961 -0.00076870 -0.00478962
v 0.00029676 -0.00095495 -0.00478962
v 0.00029676 -0.00095495 -0.00478962
v 0.00029676 -0.00095495 -0.00478962
v 0.00029676 -0.00095495 -0.00478962
v -0.00009128 -0.00099583 -0.00478962
v -0.00009128 -0.00099583 -0.00478962
v -0.00009128 -0.00099583 -0.00478962
v -0.00046541 -0.00088509 -0.00478962
v -0.00046541 -0.00088509 -0.00478962
v -0.00046541 -0.00088509 -0.00478962
v -0.00076870 -0.00063962 -0.00478962
v -0.00076870 -0.00063962 -0.00478962
v -0.00076870 -0.00063962 -0.00478962
v -0.00076870 -0.00063962 -0.00478962
v -0.00095495 -0.00029676 -0.00478962
v -0.00095495 -0.00029676 -0.00478962
v -0.00095495 -0.00029676 -0.00478962
v -0.00095495 -0.00029676 -0.00478962
v -0.00099583 0.00009127 -0.00478962
v -0.00099583 0.00009127 -0.00478962
v -0.00099583 0.00009127 -0.00478962
v -0.00099583 0.00009127 -0.00478962
v -0.00088510 0.00046541 -0.00478962
v -0.00088510 0.00046541 -0.00478962
v -0.00088510 0.00046541 -0.00478962
v -0.00088510 0.00046541 -0.00478962
v -0.00063962 0.00076869 -0.00478962
v -0.00063962 0.00076869 -0.00478962
v -0.00063962 0.00076869 -0.00478962
v -0.00063962 0.00076869 -0.00478962
v -0.00029676 0.00095495 -0.00478962
v -0.00029676 0.00095495 -0.00478962
v -0.00029676 0.00095495 -0.00478962
v 0.00009127 0.00099582 -0.00478962
v 0.00009127 0.00099582 -0.00478962
v 0.00009127 0.00099582 -0.00478962
v 0.00046541 0.00088509 -0.00478962
v 0.00046541 0.00088509 -0.00478962
v 0.00046541 0.00088509 -0.00478962
v 0.00046541 0.00088509 -0.00478962
v 0.00076869 0.00063961 -0.00478962
v 0.00076869 0.00063961 -0.00478962
v 0.00076869 0.00063961 -0.00478962
v 0.00076869 0.00063961 -0.00478962
v 0.00017342 0.00189207 0.00296500
v 0.00017342 0.00189207 0.00296500
v 0.00017342 0.00189207 0.00296500
v 0.00088428 0.00168168 0.00296500
v 0.00088428 0.00168168 0.00296500
v 0.00088428 0.00168168 0.00296500
v -0.00056385 0.00181441 0.00296500
v -0.00056385 0.00181441 0.00296500
v -0.00056385 0.00181441 0.00296500
v 0.00146052 0.00121527 0.00296500
v 0.00146052 0.00121527 0.00296500
v 0.00146052 0.00121527 0.00296500
v 0.00181441 0.00056384 0.00296500
v 0.00181441 0.00056384 0.00296500
v 0.00181441 0.00056384 0.00296500
v 0.00189207 -0.00017342 0.00296500
v 0.00189207 -0.00017342 0.00296500
v 0.00189207 -0.00017342 0.00296500
v -0.00121527 0.00146052 0.00296500
v -0.00121527 0.00146052 0.00296500
v -0.00121527 0.00146052 0.00296500
v -0.00168168 0.00088428 0.00296500
v -0.00168168 0.00088428 0.00296500
v -0.00168168 0.00088428 0.00296500
v 0.00168168 -0.00088428 0.00296500
v 0.00168168 -0.00088428 0.00296500
v 0.00168168 -0.00088428 0.00296500
v -0.00189207 0.00017342 0.00296500
v -0.00189207 0.00017342 0.00296500
v -0.00189207 0.00017342 0.00296500
v 0.00121527 -0.00146052 0.00296500
v 0.00121527 -0.00146052 0.00296500
v 0.00121527 -0.00146052 0.00296500
v -0.00181441 -0.00056384 0.00296500
v -0.00181441 -0.00056384 0.00296500
v 0.00056384 -0.00181441 0.00296500
v 0.00056384 -0.00181441 0.00296500
v 0.00056384 -0.00181441 0.00296500
v -0.00146052 -0.00121527 0.00296500
v -0.00146052 -0.00121527 0.00296500
v -0.00146052 -0.00121527 0.00296500
v -0.00017342 -0.00189207 0.00296500
v -0.00017342 -0.00189207 0.00296500
v -0.00017342 -0.00189207 0.00296500
v -0.00088429 -0.00168168 0.00296500
v -0.00088429 -0.00168168 0.00296500
v -0.00088429 -0.00168168 0.00296500
v -0.00072063 -0.00022394 -0.00503500
v -0.00072063 -0.00022394 -0.00503500
v -0.00072063 -0.00022394 -0.00503500
v -0.00058007 -0.00048267 -0.00503500
v -0.00058007 -0.00048267 -0.00503500
v -0.00058007 -0.00048267 -0.00503500
v -0.00035121 -0.00066791 -0.00503500
v -0.00035121 -0.00066791 -0.00503500
v -0.00006888 -0.00075147 -0.00503500
v -0.00006888 -0.00075147 -0.00503500
v 0.00022394 -0.00072063 -0.00503500
v 0.00022394 -0.00072063 -0.00503500
v 0.00022394 -0.00072063 -0.00503500
v 0.00048266 -0.00058007 -0.00503500
v 0.00048266 -0.00058007 -0.00503500
v 0.00048266 -0.00058007 -0.00503500
v 0.00066791 -0.00035121 -0.00503500
v 0.00066791 -0.00035121 -0.00503500
v 0.00066791 -0.00035121 -0.00503500
v 0.00075147 -0.00006888 -0.00503500
v 0.00075147 -0.00006888 -0.00503500
v 0.00072062 0.00022394 -0.00503500
v 0.00072062 0.00022394 -0.00503500
v 0.00058007 0.00048267 -0.00503500
v 0.00058007 0.00048267 -0.00503500
v 0.00058007 0.00048267 -0.00503500
v 0.00035121 0.00066791 -0.00503500
v 0.00035121 0.00066791 -0.00503500
v 0.00035121 0.00066791 -0.00503500
v 0.00006888 0.00075147 -0.00503500
v 0.00006888 0.00075147 -0.00503500
v -0.00022394 0.00072063 -0.00503500
v -0.00022394 0.00072063 -0.00503500
v -0.00022394 0.00072063 -0.00503500
v -0.00048267 0.00058007 -0.00503500
v -0.00048267 0.00058007 -0.00503500
v -0.00048267 0.00058007 -0.00503500
v -0.00066791 0.00035121 -0.00503500
v -0.00066791 0.00035121 -0.00503500
v -0.00066791 0.00035121 -0.00503500
v -0.00075147 0.00006888 -0.00503500
v -0.00075147 0.00006888 -0.00503500
v -0.00052721 0.00169651 0.00494977
v -0.00052721 0.00169651 0.00494977
v -0.00052721 0.00169651 0.00494977
v -0.00052721 0.00169651 0.00494977
v -0.00108735 0.00130678 0.00496500
v -0.00108735 0.00130678 0.00496500
v -0.00050449 0.00162342 0.00496500
v -0.00050449 0.00162342 0.00496500
v -0.00050449 0.00162342 0.00496500
v 0.00016215 0.00176912 0.00494977
v 0.00016215 0.00176912 0.00494977
v 0.00016215 0.00176912 0.00494977
v 0.00015516 0.00169290 0.00496500
v 0.00015516 0.00169290 0.00496500
v 0.00016807 0.00183373 0.00490642
v 0.00016807 0.00183373 0.00490642
v 0.00016807 0.00183373 0.00490642
v -0.00054646 0.00175847 0.00490642
v -0.00054646 0.00175847 0.00490642
v -0.00054646 0.00175847 0.00490642
v 0.00017203 0.00187691 0.00484154
v 0.00017203 0.00187691 0.00484154
v 0.00017203 0.00187691 0.00484154
v 0.00017203 0.00187691 0.00484154
v 0.00017342 0.00189207 0.00476500
v 0.00017342 0.00189207 0.00476500
v 0.00017342 0.00189207 0.00476500
v 0.00017342 0.00189207 0.00476500
v -0.00056385 0.00181441 0.00476500
v -0.00056385 0.00181441 0.00476500
v -0.00056385 0.00181441 0.00476500
v -0.00056385 0.00181441 0.00476500
v -0.00056385 0.00181441 0.00476500
v -0.00055933 0.00179987 0.00484154
v -0.00055933 0.00179987 0.00484154
v -0.00055933 0.00179987 0.00484154
v -0.00055933 0.00179987 0.00484154
v 0.00082682 0.00157240 0.00494977
v 0.00082682 0.00157240 0.00494977
v 0.00082682 0.00157240 0.00494977
v 0.00079120 0.00150466 0.00496500
v 0.00079120 0.00150466 0.00496500
v 0.00085702 0.00162983 0.00490642
v 0.00085702 0.00162983 0.00490642
v 0.00085702 0.00162983 0.00490642
v 0.00087720 0.00166820 0.00484154
v 0.00087720 0.00166820 0.00484154
v 0.00087720 0.00166820 0.00484154
v 0.00088428 0.00168168 0.00476500
v 0.00088428 0.00168168 0.00476500
v 0.00088428 0.00168168 0.00476500
v 0.00136561 0.00113630 0.00494977
v 0.00136561 0.00113630 0.00494977
v 0.00136561 0.00113630 0.00494977
v 0.00136561 0.00113630 0.00494977
v 0.00130678 0.00108734 0.00496500
v 0.00130678 0.00108734 0.00496500
v 0.00141549 0.00117780 0.00490642
v 0.00141549 0.00117780 0.00490642
v 0.00144882 0.00120553 0.00484154
v 0.00144882 0.00120553 0.00484154
v 0.00144882 0.00120553 0.00484154
v 0.00146052 0.00121527 0.00476500
v 0.00146052 0.00121527 0.00476500
v 0.00146052 0.00121527 0.00476500
v 0.00146052 0.00121527 0.00476500
v 0.00169651 0.00052720 0.00494977
v 0.00169651 0.00052720 0.00494977
v 0.00162342 0.00050449 0.00496500
v 0.00162342 0.00050449 0.00496500
v 0.00162342 0.00050449 0.00496500
v 0.00175847 0.00054646 0.00490642
v 0.00175847 0.00054646 0.00490642
v 0.00179987 0.00055933 0.00484154
v 0.00179987 0.00055933 0.00484154
v 0.00179987 0.00055933 0.00484154
v 0.00179987 0.00055933 0.00484154
v 0.00181441 0.00056384 0.00476500
v 0.00181441 0.00056384 0.00476500
v 0.00181441 0.00056384 0.00476500
v 0.00181441 0.00056384 0.00476500
v 0.00176912 -0.00016215 0.00494977
v 0.00176912 -0.00016215 0.00494977
v 0.00169290 -0.00015517 0.00496500
v 0.00169290 -0.00015517 0.00496500
v 0.00183373 -0.00016807 0.00490642
v 0.00183373 -0.00016807 0.00490642
v 0.00187691 -0.00017203 0.00484154
v 0.00187691 -0.00017203 0.00484154
v 0.00187691 -0.00017203 0.00484154
v 0.00189207 -0.00017342 0.00476500
v 0.00189207 -0.00017342 0.00476500
v 0.00189207 -0.00017342 0.00476500
v 0.00189207 -0.00017342 0.00476500
v 0.00157240 -0.00082682 0.00494977
v 0.00157240 -0.00082682 0.00494977
v 0.00157240 -0.00082682 0.00494977
v 0.00150466 -0.00079120 0.00496500
v 0.00150466 -0.00079120 0.00496500
v 0.00162983 -0.00085702 0.00490642
v 0.00166820 -0.00087720 0.00484154
v 0.00166820 -0.00087720 0.00484154
v 0.00166820 -0.00087720 0.00484154
v 0.00166820 -0.00087720 0.00484154
v 0.00121527 -0.00146052 0.00476500
v 0.00121527 -0.00146052 0.00476500
v 0.00121527 -0.00146052 0.00476500
v 0.00121527 -0.00146052 0.00476500
v 0.00121527 -0.00146052 0.00476500
v 0.00168168 -0.00088428 0.00476500
v 0.00168168 -0.00088428 0.00476500
v 0.00168168 -0.00088428 0.00476500
v 0.00113630 -0.00136562 0.00494977
v 0.00113630 -0.00136562 0.00494977
v 0.00108734 -0.00130678 0.00496500
v 0.00108734 -0.00130678 0.00496500
v 0.00117780 -0.00141549 0.00490642
v 0.00117780 -0.00141549 0.00490642
v 0.00120553 -0.00144882 0.00484154
v 0.00120553 -0.00144882 0.00484154
v 0.00120553 -0.00144882 0.00484154
v 0.00120553 -0.00144882 0.00484154
v 0.00056384 -0.00181441 0.00476500
v 0.00056384 -0.00181441 0.00476500
v 0.00056384 -0.00181441 0.00476500
v 0.00056384 -0.00181441 0.00476500
v 0.00056384 -0.00181441 0.00476500
v 0.00052720 -0.00169651 0.00494977
v 0.00052720 -0.00169651 0.00494977
v 0.00052720 -0.00169651 0.00494977
v 0.00050449 -0.00162342 0.00496500
v 0.00050449 -0.00162342 0.00496500
v 0.00050449 -0.00162342 0.00496500
v 0.00054646 -0.00175847 0.00490642
v 0.00054646 -0.00175847 0.00490642
v 0.00054646 -0.00175847 0.00490642
v 0.00054646 -0.00175847 0.00490642
v 0.00055932 -0.00179987 0.00484154
v 0.00055932 -0.00179987 0.00484154
v 0.00055932 -0.00179987 0.00484154
v 0.00055932 -0.00179987 0.00484154
v -0.00016215 -0.00176912 0.00494977
v -0.00016215 -0.00176912 0.00494977
v -0.00015517 -0.00169290 0.00496500
v -0.00015517 -0.00169290 0.00496500
v -0.00016808 -0.00183373 0.00490642
v -0.00016808 -0.00183373 0.00490642
v -0.00016808 -0.00183373 0.00490642
v -0.00017203 -0.00187691 0.00484154
v -0.00017203 -0.00187691 0.00484154
v -0.00017203 -0.00187691 0.00484154
v -0.00017203 -0.00187691 0.00484154
v -0.00017342 -0.00189207 0.00476500
v -0.00017342 -0.00189207 0.00476500
v -0.00017342 -0.00189207 0.00476500
v -0.00017342 -0.00189207 0.00476500
v -0.00082682 -0.00157240 0.00494977
v -0.00082682 -0.00157240 0.00494977
v -0.00082682 -0.00157240 0.00494977
v -0.00082682 -0.00157240 0.00494977
v -0.00079120 -0.00150466 0.00496500
v -0.00079120 -0.00150466 0.00496500
v -0.00085702 -0.00162983 0.00490642
v -0.00087720 -0.00166820 0.00484154
v -0.00087720 -0.00166820 0.00484154
v -0.00087720 -0.00166820 0.00484154
v -0.00087720 -0.00166820 0.00484154
v -0.00088429 -0.00168168 0.00476500
v -0.00088429 -0.00168168 0.00476500
v -0.00088429 -0.00168168 0.00476500
v -0.00088429 -0.00168168 0.00476500
v -0.00088429 -0.00168168 0.00476500
v -0.00136562 -0.00113630 0.00494977
v -0.00136562 -0.00113630 0.00494977
v -0.00136562 -0.00113630 0.00494977
v -0.00130678 -0.00108734 0.00496500
v -0.00130678 -0.00108734 0.00496500
v -0.00141549 -0.00117780 0.00490642
v -0.00141549 -0.00117780 0.00490642
v -0.00144882 -0.00120553 0.00484154
v -0.00144882 -0.00120553 0.00484154
v -0.00144882 -0.00120553 0.00484154
v -0.00144882 -0.00120553 0.00484154
v -0.00144882 -0.00120553 0.00484154
v -0.00146052 -0.00121527 0.00476500
v -0.00146052 -0.00121527 0.00476500
v -0.00146052 -0.00121527 0.00476500
v -0.00146052 -0.00121527 0.00476500
v -0.00169651 -0.00052720 0.00494977
v -0.00169651 -0.00052720 0.00494977
v -0.00169651 -0.00052720 0.00494977
v -0.00162342 -0.00050449 0.00496500
v -0.00162342 -0.00050449 0.00496500
v -0.00162342 -0.00050449 0.00496500
v -0.00175847 -0.00054646 0.00490642
v -0.00175847 -0.00054646 0.00490642
v -0.00179987 -0.00055933 0.00484154
v -0.00179987 -0.00055933 0.00484154
v -0.00179987 -0.00055933 0.00484154
v -0.00181441 -0.00056384 0.00476500
v -0.00181441 -0.00056384 0.00476500
v -0.00181441 -0.00056384 0.00476500
v -0.00176912 0.00016215 0.00494977
v -0.00176912 0.00016215 0.00494977
v -0.00169291 0.00015517 0.00496500
v -0.00169291 0.00015517 0.00496500
v -0.00183374 0.00016807 0.00490642
v -0.00183374 0.00016807 0.00490642
v -0.00187691 0.00017203 0.00484154
v -0.00187691 0.00017203 0.00484154
v -0.00187691 0.00017203 0.00484154
v -0.00187691 0.00017203 0.00484154
v -0.00189207 0.00017342 0.00476500
v -0.00189207 0.00017342 0.00476500
v -0.00189207 0.00017342 0.00476500
v -0.00157240 0.00082682 0.00494977
v -0.00157240 0.00082682 0.00494977
v -0.00157240 0.00082682 0.00494977
v -0.00150466 0.00079120 0.00496500
v -0.00150466 0.00079120 0.00496500
v -0.00162983 0.00085702 0.00490642
v -0.00162983 0.00085702 0.00490642
v -0.00162983 0.00085702 0.00490642
v -0.00166821 0.00087720 0.00484154
v -0.00166821 0.00087720 0.00484154
v -0.00166821 0.00087720 0.00484154
v -0.00168168 0.00088428 0.00476500
v -0.00168168 0.00088428 0.00476500
v -0.00168168 0.00088428 0.00476500
v -0.00168168 0.00088428 0.00476500
v -0.00113630 0.00136562 0.00494977
v -0.00113630 0.00136562 0.00494977
v -0.00113630 0.00136562 0.00494977
v -0.00113630 0.00136562 0.00494977
v -0.00117780 0.00141549 0.00490642
v -0.00117780 0.00141549 0.00490642
v -0.00117780 0.00141549 0.00490642
v -0.00120553 0.00144882 0.00484154
v -0.00120553 0.00144882 0.00484154
v -0.00120553 0.00144882 0.00484154
v -0.00120553 0.00144882 0.00484154
v -0.00120553 0.00144882 0.00484154
v -0.00121527 0.00146052 0.00476500
v -0.00121527 0.00146052 0.00476500
v -0.00121527 0.00146052 0.00476500
v -0.00121527 0.00146052 0.00476500
v 0.00084471 -0.00019094 0.00496500
v 0.00084471 -0.00019094 0.00496500
v 0.00084471 -0.00019094 0.00496500
v 0.00025700 -0.00082701 0.00496500
v 0.00025700 -0.00082701 0.00496500
v 0.00025700 -0.00082701 0.00496500
v 0.00058771 0.00063608 0.00496500
v 0.00058771 0.00063608 0.00496500
v 0.00058771 0.00063608 0.00496500
v -0.00058772 -0.00063608 0.00496500
v -0.00058772 -0.00063608 0.00496500
v -0.00058772 -0.00063608 0.00496500
v -0.00025700 0.00082701 0.00496500
v -0.00025700 0.00082701 0.00496500
v -0.00025700 0.00082701 0.00496500
v -0.00084472 0.00019094 0.00496500
v -0.00084472 0.00019094 0.00496500
v -0.00084472 0.00019094 0.00496500
v 0.00052052 -0.00054180 0.00389878
v 0.00052052 -0.00054180 0.00389878
v 0.00052052 -0.00054180 0.00389878
v 0.00067383 -0.00037589 0.00391047
v 0.00067383 -0.00037589 0.00391047
v 0.00067383 -0.00037589 0.00391047
v 0.00084471 -0.00019094 0.00396500
v 0.00084471 -0.00019094 0.00396500
v 0.00084471 -0.00019094 0.00396500
v 0.00025700 -0.00082701 0.00396500
v 0.00025700 -0.00082701 0.00396500
v 0.00025700 -0.00082701 0.00396500
v -0.00020896 -0.00072169 0.00389878
v -0.00020896 -0.00072169 0.00389878
v -0.00020896 -0.00072169 0.00389878
v 0.00001139 -0.00077150 0.00391047
v 0.00001139 -0.00077150 0.00391047
v 0.00001139 -0.00077150 0.00391047
v 0.00001139 -0.00077150 0.00391047
v -0.00058772 -0.00063608 0.00396500
v -0.00058772 -0.00063608 0.00396500
v -0.00058772 -0.00063608 0.00396500
v -0.00066244 -0.00039561 0.00391047
v -0.00066244 -0.00039561 0.00391047
v -0.00066244 -0.00039561 0.00391047
v -0.00072948 -0.00017989 0.00389878
v -0.00072948 -0.00017989 0.00389878
v -0.00072948 -0.00017989 0.00389878
v -0.00084472 0.00019094 0.00396500
v -0.00084472 0.00019094 0.00396500
v -0.00084472 0.00019094 0.00396500
v -0.00052053 0.00054180 0.00389878
v -0.00052053 0.00054180 0.00389878
v -0.00052053 0.00054180 0.00389878
v -0.00052053 0.00054180 0.00389878
v -0.00025700 0.00082701 0.00396500
v -0.00025700 0.00082701 0.00396500
v -0.00025700 0.00082701 0.00396500
v -0.00067383 0.00037589 0.00391047
v -0.00067383 0.00037589 0.00391047
v -0.00067383 0.00037589 0.00391047
v 0.00058771 0.00063608 0.00396500
v 0.00058771 0.00063608 0.00396500
v 0.00058771 0.00063608 0.00396500
v 0.00071621 0.00022257 0.00389801
v 0.00071621 0.00022257 0.00389801
v 0.00071621 0.00022257 0.00389801
v 0.00071621 0.00022257 0.00389801
v 0.00071621 0.00022257 0.00389801
v 0.00020895 0.00072169 0.00389878
v 0.00020895 0.00072169 0.00389878
v 0.00020895 0.00072169 0.00389878
v -0.00001139 0.00077149 0.00391047
v -0.00001139 0.00077149 0.00391047
v -0.00001139 0.00077149 0.00391047
v -0.00001139 0.00077149 0.00391047
v 0.00041350 0.00012850 0.00371500
v 0.00041350 0.00012850 0.00371500
v 0.00020153 0.00038326 0.00371500
v 0.00020153 0.00038326 0.00371500
v -0.00000000 -0.00000000 0.00346500
v -0.00000000 -0.00000000 0.00346500
v -0.00000000 -0.00000000 0.00346500
v -0.00000000 -0.00000000 0.00346500
v -0.00000000 -0.00000000 0.00346500
v -0.00000000 -0.00000000 0.00346500
v -0.00012850 0.00041351 0.00371500
v -0.00012850 0.00041351 0.00371500
v -0.00038326 0.00020153 0.00371500
v -0.00038326 0.00020153 0.00371500
v -0.00038326 0.00020153 0.00371500
v -0.00041351 -0.00012850 0.00371500
v -0.00041351 -0.00012850 0.00371500
v -0.00041351 -0.00012850 0.00371500
v -0.00041351 -0.00012850 0.00371500
v -0.00020153 -0.00038326 0.00371500
v -0.00020153 -0.00038326 0.00371500
v -0.00020153 -0.00038326 0.00371500
v 0.00012850 -0.00041351 0.00371500
v 0.00012850 -0.00041351 0.00371500
v 0.00012850 -0.00041351 0.00371500
v 0.00038325 -0.00020153 0.00371500
v 0.00038325 -0.00020153 0.00371500
v 0.04429623 0.00084540 0.00296500
v 0.04429623 0.00084540 0.00296500
v 0.04467332 0.00105037 0.00296500
v 0.04467332 0.00105037 0.00296500
v 0.04467332 0.00105037 0.00296500
v 0.04468817 0.00100263 0.00295160
v 0.04468817 0.00100263 0.00295160
v 0.04468817 0.00100263 0.00295160
v 0.04468817 0.00100263 0.00295160
v 0.04469905 0.00096768 0.00291500
v 0.04469905 0.00096768 0.00291500
v 0.04469905 0.00096768 0.00291500
v 0.04509226 0.00100919 0.00291500
v 0.04509226 0.00100919 0.00291500
v 0.04509226 0.00100919 0.00291500
v 0.04470302 0.00095488 0.00286500
v 0.04470302 0.00095488 0.00286500
v 0.04470302 0.00095488 0.00286500
v 0.04470302 0.00095488 0.00286500
v 0.04470302 0.00095488 0.00286500
v 0.04470302 0.00095488 0.00286500
v 0.04509104 0.00099585 0.00286500
v 0.04509104 0.00099585 0.00286500
v 0.04509104 0.00099585 0.00286500
v 0.04509104 0.00099585 0.00286500
v 0.04509559 0.00104564 0.00295160
v 0.04509559 0.00104564 0.00295160
v 0.04509559 0.00104564 0.00295160
v 0.04510015 0.00109543 0.00296500
v 0.04510015 0.00109543 0.00296500
v 0.04510015 0.00109543 0.00296500
v 0.04547144 0.00089706 0.00291500
v 0.04547144 0.00089706 0.00291500
v 0.04546521 0.00088520 0.00286500
v 0.04546521 0.00088520 0.00286500
v 0.04546521 0.00088520 0.00286500
v 0.04548847 0.00092946 0.00295160
v 0.04548847 0.00092946 0.00295160
v 0.04548847 0.00092946 0.00295160
v 0.04551173 0.00097372 0.00296500
v 0.04551173 0.00097372 0.00296500
v 0.04551173 0.00097372 0.00296500
v 0.04577885 0.00064836 0.00291500
v 0.04577885 0.00064836 0.00291500
v 0.04577885 0.00064836 0.00291500
v 0.04577885 0.00064836 0.00291500
v 0.04576855 0.00063979 0.00286500
v 0.04576855 0.00063979 0.00286500
v 0.04576855 0.00063979 0.00286500
v 0.04576855 0.00063979 0.00286500
v 0.04580697 0.00067178 0.00295160
v 0.04580697 0.00067178 0.00295160
v 0.04580697 0.00067178 0.00295160
v 0.04584540 0.00070377 0.00296500
v 0.04584540 0.00070377 0.00296500
v 0.04584540 0.00070377 0.00296500
v 0.04584540 0.00070377 0.00296500
v 0.04596768 0.00030096 0.00291500
v 0.04596768 0.00030096 0.00291500
v 0.04596768 0.00030096 0.00291500
v 0.04596768 0.00030096 0.00291500
v 0.04596768 0.00030096 0.00291500
v 0.04595489 0.00029698 0.00286500
v 0.04595489 0.00029698 0.00286500
v 0.04595489 0.00029698 0.00286500
v 0.04595489 0.00029698 0.00286500
v 0.04599585 -0.00009104 0.00286500
v 0.04599585 -0.00009104 0.00286500
v 0.04599585 -0.00009104 0.00286500
v 0.04599585 -0.00009104 0.00286500
v 0.04600263 0.00031183 0.00295160
v 0.04600263 0.00031183 0.00295160
v 0.04600263 0.00031183 0.00295160
v 0.04600263 0.00031183 0.00295160
v 0.04605037 0.00032668 0.00296500
v 0.04605037 0.00032668 0.00296500
v 0.04605037 0.00032668 0.00296500
v 0.04600919 -0.00009226 0.00291500
v 0.04600919 -0.00009226 0.00291500
v 0.04600919 -0.00009226 0.00291500
v 0.04600919 -0.00009226 0.00291500
v 0.04609543 -0.00010015 0.00296500
v 0.04609543 -0.00010015 0.00296500
v 0.04609543 -0.00010015 0.00296500
v 0.04604564 -0.00009560 0.00295160
v 0.04604564 -0.00009560 0.00295160
v 0.04604564 -0.00009560 0.00295160
v 0.04604564 -0.00009560 0.00295160
v 0.04589706 -0.00047144 0.00291500
v 0.04589706 -0.00047144 0.00291500
v 0.04589706 -0.00047144 0.00291500
v 0.04589706 -0.00047144 0.00291500
v 0.04588520 -0.00046521 0.00286500
v 0.04588520 -0.00046521 0.00286500
v 0.04588520 -0.00046521 0.00286500
v 0.04597372 -0.00051173 0.00296500
v 0.04597372 -0.00051173 0.00296500
v 0.04597372 -0.00051173 0.00296500
v 0.04592946 -0.00048847 0.00295160
v 0.04592946 -0.00048847 0.00295160
v 0.04592946 -0.00048847 0.00295160
v 0.04564837 -0.00077885 0.00291500
v 0.04564837 -0.00077885 0.00291500
v 0.04563979 -0.00076855 0.00286500
v 0.04563979 -0.00076855 0.00286500
v 0.04563979 -0.00076855 0.00286500
v 0.04563979 -0.00076855 0.00286500
v 0.04570377 -0.00084540 0.00296500
v 0.04570377 -0.00084540 0.00296500
v 0.04570377 -0.00084540 0.00296500
v 0.04567178 -0.00080698 0.00295160
v 0.04567178 -0.00080698 0.00295160
v 0.04567178 -0.00080698 0.00295160
v 0.04529698 -0.00095488 0.00286500
v 0.04529698 -0.00095488 0.00286500
v 0.04529698 -0.00095488 0.00286500
v 0.04529698 -0.00095488 0.00286500
v 0.04530096 -0.00096768 0.00291500
v 0.04490896 -0.00099585 0.00286500
v 0.04490896 -0.00099585 0.00286500
v 0.04490896 -0.00099585 0.00286500
v 0.04490896 -0.00099585 0.00286500
v 0.04490896 -0.00099585 0.00286500
v 0.04532668 -0.00105037 0.00296500
v 0.04532668 -0.00105037 0.00296500
v 0.04532668 -0.00105037 0.00296500
v 0.04531183 -0.00100263 0.00295160
v 0.04531183 -0.00100263 0.00295160
v 0.04531183 -0.00100263 0.00295160
v 0.04490774 -0.00100919 0.00291500
v 0.04490774 -0.00100919 0.00291500
v 0.04490774 -0.00100919 0.00291500
v 0.04490774 -0.00100919 0.00291500
v 0.04453479 -0.00088520 0.00286500
v 0.04453479 -0.00088520 0.00286500
v 0.04453479 -0.00088520 0.00286500
v 0.04453479 -0.00088520 0.00286500
v 0.04453479 -0.00088520 0.00286500
v 0.04453479 -0.00088520 0.00286500
v 0.04490441 -0.00104564 0.00295160
v 0.04490441 -0.00104564 0.00295160
v 0.04490441 -0.00104564 0.00295160
v 0.04490441 -0.00104564 0.00295160
v 0.04489985 -0.00109543 0.00296500
v 0.04489985 -0.00109543 0.00296500
v 0.04489985 -0.00109543 0.00296500
v 0.04452856 -0.00089706 0.00291500
v 0.04452856 -0.00089706 0.00291500
v 0.04452856 -0.00089706 0.00291500
v 0.04451153 -0.00092946 0.00295160
v 0.04451153 -0.00092946 0.00295160
v 0.04451153 -0.00092946 0.00295160
v 0.04451153 -0.00092946 0.00295160
v 0.04448827 -0.00097372 0.00296500
v 0.04448827 -0.00097372 0.00296500
v 0.04448827 -0.00097372 0.00296500
v 0.04422116 -0.00064836 0.00291500
v 0.04422116 -0.00064836 0.00291500
v 0.04423146 -0.00063979 0.00286500
v 0.04423146 -0.00063979 0.00286500
v 0.04423146 -0.00063979 0.00286500
v 0.04423146 -0.00063979 0.00286500
v 0.04419302 -0.00067178 0.00295160
v 0.04419302 -0.00067178 0.00295160
v 0.04419302 -0.00067178 0.00295160
v 0.04415460 -0.00070377 0.00296500
v 0.04415460 -0.00070377 0.00296500
v 0.04415460 -0.00070377 0.00296500
v 0.04403232 -0.00030096 0.00291500
v 0.04403232 -0.00030096 0.00291500
v 0.04403232 -0.00030096 0.00291500
v 0.04403232 -0.00030096 0.00291500
v 0.04403232 -0.00030096 0.00291500
v 0.04404512 -0.00029698 0.00286500
v 0.04404512 -0.00029698 0.00286500
v 0.04404512 -0.00029698 0.00286500
v 0.04404512 -0.00029698 0.00286500
v 0.04404512 -0.00029698 0.00286500
v 0.04399737 -0.00031183 0.00295160
v 0.04399737 -0.00031183 0.00295160
v 0.04394963 -0.00032668 0.00296500
v 0.04394963 -0.00032668 0.00296500
v 0.04394963 -0.00032668 0.00296500
v 0.04394963 -0.00032668 0.00296500
v 0.04399081 0.00009226 0.00291500
v 0.04399081 0.00009226 0.00291500
v 0.04399081 0.00009226 0.00291500
v 0.04399081 0.00009226 0.00291500
v 0.04399081 0.00009226 0.00291500
v 0.04400415 0.00009104 0.00286500
v 0.04400415 0.00009104 0.00286500
v 0.04400415 0.00009104 0.00286500
v 0.04400415 0.00009104 0.00286500
v 0.04390457 0.00010015 0.00296500
v 0.04390457 0.00010015 0.00296500
v 0.04390457 0.00010015 0.00296500
v 0.04395436 0.00009560 0.00295160
v 0.04395436 0.00009560 0.00295160
v 0.04395436 0.00009560 0.00295160
v 0.04395436 0.00009560 0.00295160
v 0.04410294 0.00047144 0.00291500
v 0.04410294 0.00047144 0.00291500
v 0.04410294 0.00047144 0.00291500
v 0.04411480 0.00046521 0.00286500
v 0.04411480 0.00046521 0.00286500
v 0.04411480 0.00046521 0.00286500
v 0.04411480 0.00046521 0.00286500
v 0.04411480 0.00046521 0.00286500
v 0.04402628 0.00051173 0.00296500
v 0.04402628 0.00051173 0.00296500
v 0.04402628 0.00051173 0.00296500
v 0.04407054 0.00048847 0.00295160
v 0.04407054 0.00048847 0.00295160
v 0.04407054 0.00048847 0.00295160
v 0.04407054 0.00048847 0.00295160
v 0.04407054 0.00048847 0.00295160
v 0.04407054 0.00048847 0.00295160
v 0.04436021 0.00076855 0.00286500
v 0.04436021 0.00076855 0.00286500
v 0.04436021 0.00076855 0.00286500
v 0.04436021 0.00076855 0.00286500
v 0.04435164 0.00077884 0.00291500
v 0.04435164 0.00077884 0.00291500
v 0.04435164 0.00077884 0.00291500
v 0.04435164 0.00077884 0.00291500
v 0.04435164 0.00077884 0.00291500
v 0.04432822 0.00080697 0.00295160
v 0.04432822 0.00080697 0.00295160
v 0.04432822 0.00080697 0.00295160
v 0.04432822 0.00080697 0.00295160
v 0.04595489 0.00029698 -0.00478962
v 0.04595489 0.00029698 -0.00478962
v 0.04595489 0.00029698 -0.00478962
v 0.04595489 0.00029698 -0.00478962
v 0.04599585 -0.00009105 -0.00478962
v 0.04599585 -0.00009105 -0.00478962
v 0.04599585 -0.00009105 -0.00478962
v 0.04588520 -0.00046521 -0.00478962
v 0.04588520 -0.00046521 -0.00478962
v 0.04588520 -0.00046521 -0.00478962
v 0.04588520 -0.00046521 -0.00478962
v 0.04563979 -0.00076855 -0.00478962
v 0.04563979 -0.00076855 -0.00478962
v 0.04563979 -0.00076855 -0.00478962
v 0.04563979 -0.00076855 -0.00478962
v 0.04529698 -0.00095489 -0.00478962
v 0.04529698 -0.00095489 -0.00478962
v 0.04529698 -0.00095489 -0.00478962
v 0.04529698 -0.00095489 -0.00478962
v 0.04490896 -0.00099585 -0.00478962
v 0.04490896 -0.00099585 -0.00478962
v 0.04490896 -0.00099585 -0.00478962
v 0.04453479 -0.00088520 -0.00478962
v 0.04453479 -0.00088520 -0.00478962
v 0.04453479 -0.00088520 -0.00478962
v 0.04453479 -0.00088520 -0.00478962
v 0.04423146 -0.00063979 -0.00478962
v 0.04423146 -0.00063979 -0.00478962
v 0.04423146 -0.00063979 -0.00478962
v 0.04423146 -0.00063979 -0.00478962
v 0.04423146 -0.00063979 -0.00478962
v 0.04404512 -0.00029698 -0.00478962
v 0.04404512 -0.00029698 -0.00478962
v 0.04404512 -0.00029698 -0.00478962
v 0.04404512 -0.00029698 -0.00478962
v 0.04400416 0.00009104 -0.00478962
v 0.04400416 0.00009104 -0.00478962
v 0.04400416 0.00009104 -0.00478962
v 0.04400416 0.00009104 -0.00478962
v 0.04411480 0.00046521 -0.00478962
v 0.04411480 0.00046521 -0.00478962
v 0.04411480 0.00046521 -0.00478962
v 0.04411480 0.00046521 -0.00478962
v 0.04436021 0.00076855 -0.00478962
v 0.04436021 0.00076855 -0.00478962
v 0.04436021 0.00076855 -0.00478962
v 0.04436021 0.00076855 -0.00478962
v 0.04470302 0.00095488 -0.00478962
v 0.04470302 0.00095488 -0.00478962
v 0.04470302 0.00095488 -0.00478962
v 0.04509104 0.00099584 -0.00478962
v 0.04509104 0.00099584 -0.00478962
v 0.04509104 0.00099584 -0.00478962
v 0.04509104 0.00099584 -0.00478962
v 0.04546521 0.00088520 -0.00478962
v 0.04546521 0.00088520 -0.00478962
v 0.04546521 0.00088520 -0.00478962
v 0.04546521 0.00088520 -0.00478962
v 0.04576855 0.00063979 -0.00478962
v 0.04576855 0.00063979 -0.00478962
v 0.04576855 0.00063979 -0.00478962
v 0.04576855 0.00063979 -0.00478962
v 0.04517298 0.00189211 0.00296500
v 0.04517298 0.00189211 0.00296500
v 0.04517298 0.00189211 0.00296500
v 0.04588389 0.00168188 0.00296500
v 0.04588389 0.00168188 0.00296500
v 0.04588389 0.00168188 0.00296500
v 0.04443574 0.00181428 0.00296500
v 0.04443574 0.00181428 0.00296500
v 0.04443574 0.00181428 0.00296500
v 0.04646024 0.00121561 0.00296500
v 0.04646024 0.00121561 0.00296500
v 0.04646024 0.00121561 0.00296500
v 0.04681428 0.00056426 0.00296500
v 0.04681428 0.00056426 0.00296500
v 0.04681428 0.00056426 0.00296500
v 0.04689211 -0.00017298 0.00296500
v 0.04689211 -0.00017298 0.00296500
v 0.04689211 -0.00017298 0.00296500
v 0.04378440 0.00146024 0.00296500
v 0.04378440 0.00146024 0.00296500
v 0.04378440 0.00146024 0.00296500
v 0.04331812 0.00088389 0.00296500
v 0.04331812 0.00088389 0.00296500
v 0.04331812 0.00088389 0.00296500
v 0.04668189 -0.00088389 0.00296500
v 0.04668189 -0.00088389 0.00296500
v 0.04668189 -0.00088389 0.00296500
v 0.04310789 0.00017298 0.00296500
v 0.04310789 0.00017298 0.00296500
v 0.04310789 0.00017298 0.00296500
v 0.04621561 -0.00146024 0.00296500
v 0.04621561 -0.00146024 0.00296500
v 0.04621561 -0.00146024 0.00296500
v 0.04318572 -0.00056426 0.00296500
v 0.04318572 -0.00056426 0.00296500
v 0.04318572 -0.00056426 0.00296500
v 0.04556426 -0.00181428 0.00296500
v 0.04556426 -0.00181428 0.00296500
v 0.04556426 -0.00181428 0.00296500
v 0.04353976 -0.00121561 0.00296500
v 0.04353976 -0.00121561 0.00296500
v 0.04353976 -0.00121561 0.00296500
v 0.04482702 -0.00189211 0.00296500
v 0.04482702 -0.00189211 0.00296500
v 0.04482702 -0.00189211 0.00296500
v 0.04411611 -0.00168188 0.00296500
v 0.04411611 -0.00168188 0.00296500
v 0.04411611 -0.00168188 0.00296500
v 0.04427942 -0.00022411 -0.00503500
v 0.04427942 -0.00022411 -0.00503500
v 0.04427942 -0.00022411 -0.00503500
v 0.04442004 -0.00048280 -0.00503500
v 0.04442004 -0.00048280 -0.00503500
v 0.04442004 -0.00048280 -0.00503500
v 0.04464895 -0.00066799 -0.00503500
v 0.04464895 -0.00066799 -0.00503500
v 0.04464895 -0.00066799 -0.00503500
v 0.04493130 -0.00075149 -0.00503500
v 0.04493130 -0.00075149 -0.00503500
v 0.04522411 -0.00072058 -0.00503500
v 0.04522411 -0.00072058 -0.00503500
v 0.04522411 -0.00072058 -0.00503500
v 0.04548281 -0.00057996 -0.00503500
v 0.04548281 -0.00057996 -0.00503500
v 0.04548281 -0.00057996 -0.00503500
v 0.04566799 -0.00035106 -0.00503500
v 0.04566799 -0.00035106 -0.00503500
v 0.04566799 -0.00035106 -0.00503500
v 0.04575149 -0.00006870 -0.00503500
v 0.04575149 -0.00006870 -0.00503500
v 0.04572058 0.00022411 -0.00503500
v 0.04572058 0.00022411 -0.00503500
v 0.04572058 0.00022411 -0.00503500
v 0.04557997 0.00048280 -0.00503500
v 0.04557997 0.00048280 -0.00503500
v 0.04557997 0.00048280 -0.00503500
v 0.04535105 0.00066799 -0.00503500
v 0.04535105 0.00066799 -0.00503500
v 0.04535105 0.00066799 -0.00503500
v 0.04506870 0.00075148 -0.00503500
v 0.04506870 0.00075148 -0.00503500
v 0.04506870 0.00075148 -0.00503500
v 0.04477589 0.00072057 -0.00503500
v 0.04477589 0.00072057 -0.00503500
v 0.04451720 0.00057996 -0.00503500
v 0.04451720 0.00057996 -0.00503500
v 0.04451720 0.00057996 -0.00503500
v 0.04433201 0.00035105 -0.00503500
v 0.04433201 0.00035105 -0.00503500
v 0.04433201 0.00035105 -0.00503500
v 0.04433201 0.00035105 -0.00503500
v 0.04424852 0.00006870 -0.00503500
v 0.04424852 0.00006870 -0.00503500
v 0.04424852 0.00006870 -0.00503500
v 0.04447240 0.00169638 0.00494978
v 0.04447240 0.00169638 0.00494978
v 0.04447240 0.00169638 0.00494978
v 0.04447240 0.00169638 0.00494978
v 0.04391236 0.00130653 0.00496500
v 0.04391236 0.00130653 0.00496500
v 0.04391236 0.00130653 0.00496500
v 0.04449513 0.00162330 0.00496500
v 0.04449513 0.00162330 0.00496500
v 0.04449513 0.00162330 0.00496500
v 0.04516174 0.00176916 0.00494978
v 0.04516174 0.00176916 0.00494978
v 0.04516174 0.00176916 0.00494978
v 0.04516174 0.00176916 0.00494978
v 0.04515478 0.00169294 0.00496500
v 0.04515478 0.00169294 0.00496500
v 0.04516765 0.00183377 0.00490642
v 0.04516765 0.00183377 0.00490642
v 0.04516765 0.00183377 0.00490642
v 0.04516765 0.00183377 0.00490642
v 0.04445313 0.00175834 0.00490642
v 0.04445313 0.00175834 0.00490642
v 0.04445313 0.00175834 0.00490642
v 0.04445313 0.00175834 0.00490642
v 0.04445313 0.00175834 0.00490642
v 0.04517160 0.00187695 0.00484154
v 0.04517160 0.00187695 0.00484154
v 0.04517160 0.00187695 0.00484154
v 0.04517160 0.00187695 0.00484154
v 0.04517160 0.00187695 0.00484154
v 0.04517298 0.00189211 0.00476500
v 0.04517298 0.00189211 0.00476500
v 0.04517298 0.00189211 0.00476500
v 0.04517298 0.00189211 0.00476500
v 0.04517298 0.00189211 0.00476500
v 0.04443574 0.00181428 0.00476500
v 0.04443574 0.00181428 0.00476500
v 0.04443574 0.00181428 0.00476500
v 0.04443574 0.00181428 0.00476500
v 0.04443574 0.00181428 0.00476500
v 0.04443574 0.00181428 0.00476500
v 0.04444026 0.00179974 0.00484154
v 0.04444026 0.00179974 0.00484154
v 0.04444026 0.00179974 0.00484154
v 0.04444026 0.00179974 0.00484154
v 0.04582646 0.00157259 0.00494978
v 0.04582646 0.00157259 0.00494978
v 0.04582646 0.00157259 0.00494978
v 0.04579086 0.00150484 0.00496500
v 0.04579086 0.00150484 0.00496500
v 0.04585664 0.00163003 0.00490642
v 0.04585664 0.00163003 0.00490642
v 0.04585664 0.00163003 0.00490642
v 0.04585664 0.00163003 0.00490642
v 0.04587681 0.00166841 0.00484154
v 0.04587681 0.00166841 0.00484154
v 0.04587681 0.00166841 0.00484154
v 0.04588389 0.00168188 0.00476500
v 0.04588389 0.00168188 0.00476500
v 0.04588389 0.00168188 0.00476500
v 0.04588389 0.00168188 0.00476500
v 0.04636535 0.00113661 0.00494978
v 0.04636535 0.00113661 0.00494978
v 0.04636535 0.00113661 0.00494978
v 0.04636535 0.00113661 0.00494978
v 0.04630653 0.00108765 0.00496500
v 0.04630653 0.00108765 0.00496500
v 0.04641522 0.00117813 0.00490642
v 0.04641522 0.00117813 0.00490642
v 0.04641522 0.00117813 0.00490642
v 0.04644854 0.00120586 0.00484154
v 0.04644854 0.00120586 0.00484154
v 0.04646024 0.00121561 0.00476500
v 0.04646024 0.00121561 0.00476500
v 0.04646024 0.00121561 0.00476500
v 0.04646024 0.00121561 0.00476500
v 0.04669639 0.00052760 0.00494978
v 0.04669639 0.00052760 0.00494978
v 0.04662330 0.00050487 0.00496500
v 0.04662330 0.00050487 0.00496500
v 0.04662330 0.00050487 0.00496500
v 0.04675834 0.00054687 0.00490642
v 0.04675834 0.00054687 0.00490642
v 0.04675834 0.00054687 0.00490642
v 0.04675834 0.00054687 0.00490642
v 0.04675834 0.00054687 0.00490642
v 0.04679974 0.00055974 0.00484154
v 0.04679974 0.00055974 0.00484154
v 0.04679974 0.00055974 0.00484154
v 0.04679974 0.00055974 0.00484154
v 0.04679974 0.00055974 0.00484154
v 0.04681428 0.00056426 0.00476500
v 0.04681428 0.00056426 0.00476500
v 0.04681428 0.00056426 0.00476500
v 0.04681428 0.00056426 0.00476500
v 0.04676916 -0.00016174 0.00494978
v 0.04669294 -0.00015477 0.00496500
v 0.04669294 -0.00015477 0.00496500
v 0.04683378 -0.00016765 0.00490642
v 0.04683378 -0.00016765 0.00490642
v 0.04687695 -0.00017160 0.00484154
v 0.04687695 -0.00017160 0.00484154
v 0.04687695 -0.00017160 0.00484154
v 0.04687695 -0.00017160 0.00484154
v 0.04689211 -0.00017298 0.00476500
v 0.04689211 -0.00017298 0.00476500
v 0.04689211 -0.00017298 0.00476500
v 0.04689211 -0.00017298 0.00476500
v 0.04689211 -0.00017298 0.00476500
v 0.04657260 -0.00082646 0.00494978
v 0.04657260 -0.00082646 0.00494978
v 0.04657260 -0.00082646 0.00494978
v 0.04650484 -0.00079085 0.00496500
v 0.04650484 -0.00079085 0.00496500
v 0.04663003 -0.00085664 0.00490642
v 0.04663003 -0.00085664 0.00490642
v 0.04663003 -0.00085664 0.00490642
v 0.04666841 -0.00087681 0.00484154
v 0.04666841 -0.00087681 0.00484154
v 0.04666841 -0.00087681 0.00484154
v 0.04666841 -0.00087681 0.00484154
v 0.04666841 -0.00087681 0.00484154
v 0.04666841 -0.00087681 0.00484154
v 0.04621561 -0.00146024 0.00476500
v 0.04621561 -0.00146024 0.00476500
v 0.04621561 -0.00146024 0.00476500
v 0.04668189 -0.00088389 0.00476500
v 0.04668189 -0.00088389 0.00476500
v 0.04668189 -0.00088389 0.00476500
v 0.04668189 -0.00088389 0.00476500
v 0.04613661 -0.00136535 0.00494978
v 0.04613661 -0.00136535 0.00494978
v 0.04608764 -0.00130653 0.00496500
v 0.04608764 -0.00130653 0.00496500
v 0.04617813 -0.00141522 0.00490642
v 0.04617813 -0.00141522 0.00490642
v 0.04617813 -0.00141522 0.00490642
v 0.04617813 -0.00141522 0.00490642
v 0.04620587 -0.00144854 0.00484154
v 0.04620587 -0.00144854 0.00484154
v 0.04620587 -0.00144854 0.00484154
v 0.04620587 -0.00144854 0.00484154
v 0.04556426 -0.00181428 0.00476500
v 0.04556426 -0.00181428 0.00476500
v 0.04556426 -0.00181428 0.00476500
v 0.04552760 -0.00169639 0.00494978
v 0.04552760 -0.00169639 0.00494978
v 0.04552760 -0.00169639 0.00494978
v 0.04552760 -0.00169639 0.00494978
v 0.04550487 -0.00162330 0.00496500
v 0.04550487 -0.00162330 0.00496500
v 0.04550487 -0.00162330 0.00496500
v 0.04554687 -0.00175834 0.00490642
v 0.04554687 -0.00175834 0.00490642
v 0.04555974 -0.00179974 0.00484154
v 0.04555974 -0.00179974 0.00484154
v 0.04555974 -0.00179974 0.00484154
v 0.04555974 -0.00179974 0.00484154
v 0.04483826 -0.00176916 0.00494978
v 0.04483826 -0.00176916 0.00494978
v 0.04484522 -0.00169294 0.00496500
v 0.04484522 -0.00169294 0.00496500
v 0.04483235 -0.00183378 0.00490642
v 0.04483235 -0.00183378 0.00490642
v 0.04483235 -0.00183378 0.00490642
v 0.04482840 -0.00187695 0.00484154
v 0.04482840 -0.00187695 0.00484154
v 0.04482840 -0.00187695 0.00484154
v 0.04482840 -0.00187695 0.00484154
v 0.04482702 -0.00189211 0.00476500
v 0.04482702 -0.00189211 0.00476500
v 0.04482702 -0.00189211 0.00476500
v 0.04482702 -0.00189211 0.00476500
v 0.04482702 -0.00189211 0.00476500
v 0.04417354 -0.00157259 0.00494978
v 0.04417354 -0.00157259 0.00494978
v 0.04417354 -0.00157259 0.00494978
v 0.04417354 -0.00157259 0.00494978
v 0.04417354 -0.00157259 0.00494978
v 0.04420915 -0.00150484 0.00496500
v 0.04420915 -0.00150484 0.00496500
v 0.04414336 -0.00163003 0.00490642
v 0.04414336 -0.00163003 0.00490642
v 0.04414336 -0.00163003 0.00490642
v 0.04412319 -0.00166841 0.00484154
v 0.04412319 -0.00166841 0.00484154
v 0.04412319 -0.00166841 0.00484154
v 0.04412319 -0.00166841 0.00484154
v 0.04412319 -0.00166841 0.00484154
v 0.04411611 -0.00168188 0.00476500
v 0.04411611 -0.00168188 0.00476500
v 0.04411611 -0.00168188 0.00476500
v 0.04411611 -0.00168188 0.00476500
v 0.04363465 -0.00113661 0.00494978
v 0.04363465 -0.00113661 0.00494978
v 0.04363465 -0.00113661 0.00494978
v 0.04369347 -0.00108765 0.00496500
v 0.04369347 -0.00108765 0.00496500
v 0.04369347 -0.00108765 0.00496500
v 0.04369347 -0.00108765 0.00496500
v 0.04358478 -0.00117813 0.00490642
v 0.04358478 -0.00117813 0.00490642
v 0.04355146 -0.00120587 0.00484154
v 0.04355146 -0.00120587 0.00484154
v 0.04355146 -0.00120587 0.00484154
v 0.04355146 -0.00120587 0.00484154
v 0.04353976 -0.00121561 0.00476500
v 0.04353976 -0.00121561 0.00476500
v 0.04353976 -0.00121561 0.00476500
v 0.04330361 -0.00052760 0.00494977
v 0.04330361 -0.00052760 0.00494977
v 0.04337670 -0.00050487 0.00496500
v 0.04337670 -0.00050487 0.00496500
v 0.04337670 -0.00050487 0.00496500
v 0.04324166 -0.00054687 0.00490642
v 0.04324166 -0.00054687 0.00490642
v 0.04324166 -0.00054687 0.00490642
v 0.04324166 -0.00054687 0.00490642
v 0.04320026 -0.00055974 0.00484154
v 0.04320026 -0.00055974 0.00484154
v 0.04320026 -0.00055974 0.00484154
v 0.04320026 -0.00055974 0.00484154
v 0.04318572 -0.00056426 0.00476500
v 0.04318572 -0.00056426 0.00476500
v 0.04318572 -0.00056426 0.00476500
v 0.04318572 -0.00056426 0.00476500
v 0.04318572 -0.00056426 0.00476500
v 0.04323084 0.00016174 0.00494977
v 0.04323084 0.00016174 0.00494977
v 0.04330706 0.00015477 0.00496500
v 0.04330706 0.00015477 0.00496500
v 0.04316622 0.00016765 0.00490642
v 0.04316622 0.00016765 0.00490642
v 0.04312305 0.00017160 0.00484154
v 0.04312305 0.00017160 0.00484154
v 0.04312305 0.00017160 0.00484154
v 0.04312305 0.00017160 0.00484154
v 0.04312305 0.00017160 0.00484154
v 0.04312305 0.00017160 0.00484154
v 0.04310789 0.00017298 0.00476500
v 0.04310789 0.00017298 0.00476500
v 0.04310789 0.00017298 0.00476500
v 0.04310789 0.00017298 0.00476500
v 0.04342741 0.00082646 0.00494977
v 0.04342741 0.00082646 0.00494977
v 0.04349516 0.00079085 0.00496500
v 0.04349516 0.00079085 0.00496500
v 0.04349516 0.00079085 0.00496500
v 0.04336997 0.00085664 0.00490642
v 0.04336997 0.00085664 0.00490642
v 0.04336997 0.00085664 0.00490642
v 0.04336997 0.00085664 0.00490642
v 0.04336997 0.00085664 0.00490642
v 0.04333159 0.00087681 0.00484154
v 0.04333159 0.00087681 0.00484154
v 0.04333159 0.00087681 0.00484154
v 0.04331812 0.00088389 0.00476500
v 0.04331812 0.00088389 0.00476500
v 0.04331812 0.00088389 0.00476500
v 0.04331812 0.00088389 0.00476500
v 0.04386338 0.00136535 0.00494977
v 0.04386338 0.00136535 0.00494977
v 0.04386338 0.00136535 0.00494977
v 0.04386338 0.00136535 0.00494977
v 0.04382187 0.00141522 0.00490642
v 0.04382187 0.00141522 0.00490642
v 0.04382187 0.00141522 0.00490642
v 0.04382187 0.00141522 0.00490642
v 0.04379413 0.00144854 0.00484154
v 0.04379413 0.00144854 0.00484154
v 0.04379413 0.00144854 0.00484154
v 0.04379413 0.00144854 0.00484154
v 0.04379413 0.00144854 0.00484154
v 0.04378440 0.00146024 0.00476500
v 0.04378440 0.00146024 0.00476500
v 0.04378440 0.00146024 0.00476500
v 0.04378440 0.00146024 0.00476500
v 0.04584476 -0.00019074 0.00496500
v 0.04584476 -0.00019074 0.00496500
v 0.04584476 -0.00019074 0.00496500
v 0.04525719 -0.00082695 0.00496500
v 0.04525719 -0.00082695 0.00496500
v 0.04525719 -0.00082695 0.00496500
v 0.04525719 -0.00082695 0.00496500
v 0.04558756 0.00063621 0.00496500
v 0.04558756 0.00063621 0.00496500
v 0.04558756 0.00063621 0.00496500
v 0.04441243 -0.00063621 0.00496500
v 0.04441243 -0.00063621 0.00496500
v 0.04441243 -0.00063621 0.00496500
v 0.04474280 0.00082695 0.00496500
v 0.04474280 0.00082695 0.00496500
v 0.04474280 0.00082695 0.00496500
v 0.04474280 0.00082695 0.00496500
v 0.04415524 0.00019074 0.00496500
v 0.04415524 0.00019074 0.00496500
v 0.04415524 0.00019074 0.00496500
v 0.04552065 -0.00054169 0.00389878
v 0.04552065 -0.00054169 0.00389878
v 0.04552065 -0.00054169 0.00389878
v 0.04552065 -0.00054169 0.00389878
v 0.04567391 -0.00037573 0.00391047
v 0.04567391 -0.00037573 0.00391047
v 0.04567391 -0.00037573 0.00391047
v 0.04584476 -0.00019074 0.00396500
v 0.04584476 -0.00019074 0.00396500
v 0.04584476 -0.00019074 0.00396500
v 0.04525719 -0.00082695 0.00396500
v 0.04525719 -0.00082695 0.00396500
v 0.04525719 -0.00082695 0.00396500
v 0.04479122 -0.00072174 0.00389878
v 0.04479122 -0.00072174 0.00389878
v 0.04479122 -0.00072174 0.00389878
v 0.04501156 -0.00077149 0.00391047
v 0.04501156 -0.00077149 0.00391047
v 0.04501156 -0.00077149 0.00391047
v 0.04501156 -0.00077149 0.00391047
v 0.04501156 -0.00077149 0.00391047
v 0.04441243 -0.00063621 0.00396500
v 0.04441243 -0.00063621 0.00396500
v 0.04441243 -0.00063621 0.00396500
v 0.04433765 -0.00039576 0.00391047
v 0.04433765 -0.00039576 0.00391047
v 0.04433765 -0.00039576 0.00391047
v 0.04433765 -0.00039576 0.00391047
v 0.04427056 -0.00018006 0.00389878
v 0.04427056 -0.00018006 0.00389878
v 0.04427056 -0.00018006 0.00389878
v 0.04427056 -0.00018006 0.00389878
v 0.04415524 0.00019074 0.00396500
v 0.04415524 0.00019074 0.00396500
v 0.04415524 0.00019074 0.00396500
v 0.04447935 0.00054168 0.00389878
v 0.04447935 0.00054168 0.00389878
v 0.04447935 0.00054168 0.00389878
v 0.04447935 0.00054168 0.00389878
v 0.04474280 0.00082695 0.00396500
v 0.04474280 0.00082695 0.00396500
v 0.04474280 0.00082695 0.00396500
v 0.04432609 0.00037573 0.00391047
v 0.04432609 0.00037573 0.00391047
v 0.04432609 0.00037573 0.00391047
v 0.04558756 0.00063621 0.00396500
v 0.04558756 0.00063621 0.00396500
v 0.04558756 0.00063621 0.00396500
v 0.04571616 0.00022273 0.00389801
v 0.04571616 0.00022273 0.00389801
v 0.04571616 0.00022273 0.00389801
v 0.04571616 0.00022273 0.00389801
v 0.04571616 0.00022273 0.00389801
v 0.04571616 0.00022273 0.00389801
v 0.04520878 0.00072174 0.00389878
v 0.04520878 0.00072174 0.00389878
v 0.04520878 0.00072174 0.00389878
v 0.04520878 0.00072174 0.00389878
v 0.04498844 0.00077149 0.00391047
v 0.04498844 0.00077149 0.00391047
v 0.04498844 0.00077149 0.00391047
v 0.04498844 0.00077149 0.00391047
v 0.04498844 0.00077149 0.00391047
v 0.04541348 0.00012860 0.00371500
v 0.04541348 0.00012860 0.00371500
v 0.04520144 0.00038330 0.00371500
v 0.04520144 0.00038330 0.00371500
v 0.04520144 0.00038330 0.00371500
v 0.04500000 -0.00000000 0.00346500
v 0.04500000 -0.00000000 0.00346500
v 0.04500000 -0.00000000 0.00346500
v 0.04500000 -0.00000000 0.00346500
v 0.04500000 -0.00000000 0.00346500
v 0.04500000 -0.00000000 0.00346500
v 0.04487140 0.00041348 0.00371500
v 0.04487140 0.00041348 0.00371500
v 0.04487140 0.00041348 0.00371500
v 0.04461670 0.00020144 0.00371500
v 0.04461670 0.00020144 0.00371500
v 0.04458652 -0.00012860 0.00371500
v 0.04458652 -0.00012860 0.00371500
v 0.04479856 -0.00038330 0.00371500
v 0.04479856 -0.00038330 0.00371500
v 0.04479856 -0.00038330 0.00371500
v 0.04512860 -0.00041348 0.00371500
v 0.04512860 -0.00041348 0.00371500
v 0.04538330 -0.00020144 0.00371500
v 0.04538330 -0.00020144 0.00371500
v 0.04538330 -0.00020144 0.00371500
f 2 6 9
f 11 16 19
f 18 16 24
f 5 27 8
f 7 26 12
f 31 27 5
f 12 27 15
f 24 35 38
f 17 33 25
f 15 42 32
f 45 41 31
f 28 40 15
f 31 41 29
f 39 48 52
f 35 48 38
f 34 55 46
f 58 54 45
f 42 55 34
f 45 56 43
f 52 61 64
f 65 62 69
f 49 61 53
f 55 71 49
f 73 70 59
f 58 70 56
f 47 71 60
f 62 77 69
f 79 80 74
f 74 80 71
f 71 81 60
f 60 81 75
f 68 85 89
f 76 84 68
f 80 85 75
f 91 92 79
f 81 92 83
f 79 92 81
f 89 95 101
f 92 95 82
f 84 96 88
f 104 107 91
f 92 106 95
f 91 105 92
f 110 112 116
f 100 115 111
f 93 112 99
f 121 123 103
f 106 122 94
f 94 124 113
f 104 123 105
f 116 127 129
f 122 127 114
f 112 125 116
f 120 134 123
f 122 133 126
f 138 134 120
f 127 140 129
f 138 143 136
f 126 143 139
f 145 143 138
f 135 143 128
f 130 147 149
f 142 147 130
f 143 153 141
f 145 152 143
f 156 153 145
f 141 153 146
f 149 161 163
f 148 159 149
f 156 167 154
f 170 167 157
f 153 168 148
f 148 168 160
f 164 175 178
f 162 175 164
f 180 181 171
f 171 181 167
f 168 182 158
f 158 182 173
f 175 185 178
f 178 186 190
f 192 194 180
f 180 193 181
f 174 195 185
f 182 195 172
f 198 200 21
f 189 200 198
f 13 199 10
f 21 200 14
f 184 200 189
f 9 201 3
f 3 202 192
f 192 202 193
f 195 202 183
f 199 202 10
f 183 202 200
f 205 66 67
f 207 67 87
f 207 205 67
f 211 207 87
f 214 97 109
f 215 86 98
f 215 210 86
f 219 214 109
f 221 108 117
f 221 218 108
f 225 132 150
f 224 118 131
f 224 222 118
f 228 225 150
f 232 151 165
f 232 229 151
f 236 176 188
f 237 166 177
f 237 233 166
f 241 236 188
f 245 187 197
f 245 240 187
f 248 196 20
f 248 244 196
f 250 20 22
f 250 248 20
f 254 23 36
f 254 251 23
f 258 37 50
f 258 255 37
f 204 51 63
f 204 259 51
f 44 260 263
f 30 266 260
f 30 260 44
f 57 263 269
f 57 44 263
f 4 266 30
f 72 269 272
f 72 57 269
f 275 72 272
f 1 278 266
f 1 266 4
f 78 72 275
f 191 278 1
f 281 278 191
f 284 78 275
f 90 78 284
f 179 281 191
f 287 281 179
f 290 102 90
f 290 90 284
f 169 287 179
f 293 169 155
f 293 287 169
f 295 119 102
f 295 102 290
f 298 155 144
f 298 293 155
f 301 137 119
f 301 119 295
f 304 144 137
f 304 137 301
f 304 298 144
f 227 308 312
f 227 230 308
f 223 311 314
f 223 226 311
f 220 314 316
f 220 223 314
f 216 316 318
f 216 220 316
f 212 319 321
f 212 217 319
f 208 322 324
f 208 213 322
f 206 325 327
f 206 209 325
f 203 327 329
f 203 206 327
f 257 329 332
f 257 203 329
f 253 331 335
f 253 256 331
f 249 334 337
f 249 252 334
f 246 337 339
f 246 249 337
f 242 340 342
f 243 343 345
f 242 247 340
f 238 243 345
f 234 346 348
f 234 348 309
f 234 239 346
f 231 235 309
f 315 320 317
f 313 310 307
f 313 323 320
f 313 326 323
f 313 328 326
f 313 330 328
f 313 333 330
f 313 336 333
f 313 338 336
f 313 341 338
f 313 344 341
f 313 347 344
f 313 307 347
f 313 320 315
f 351 354 357
f 358 350 356
f 358 356 362
f 363 367 349
f 363 349 359
f 370 375 377
f 370 378 383
f 369 382 366
f 369 367 364
f 388 362 390
f 386 360 362
f 391 365 359
f 391 359 388
f 394 364 392
f 395 399 376
f 395 375 372
f 394 371 364
f 402 390 405
f 400 387 390
f 406 393 388
f 406 388 401
f 409 392 406
f 408 394 392
f 408 413 399
f 408 399 396
f 415 405 418
f 415 402 405
f 420 402 416
f 420 406 403
f 424 427 414
f 422 407 420
f 423 409 407
f 422 414 410
f 431 419 433
f 431 416 419
f 435 420 416
f 435 416 431
f 438 427 425
f 437 442 428
f 436 423 421
f 436 421 434
f 443 433 447
f 443 430 433
f 445 434 431
f 448 434 444
f 450 457 460
f 452 460 441
f 451 436 434
f 452 441 437
f 451 434 448
f 462 447 464
f 462 445 447
f 466 448 444
f 466 444 462
f 468 475 455
f 469 449 448
f 469 448 466
f 470 456 450
f 478 464 481
f 478 462 464
f 485 465 461
f 485 461 477
f 489 475 468
f 488 467 466
f 488 466 484
f 491 480 493
f 490 483 477
f 491 476 480
f 494 483 490
f 498 501 473
f 498 474 487
f 497 486 482
f 497 482 495
f 507 493 510
f 507 491 493
f 511 496 490
f 511 490 506
f 512 516 502
f 513 495 511
f 512 502 500
f 513 499 495
f 521 510 525
f 521 505 510
f 527 511 508
f 527 506 523
f 530 533 517
f 528 511 526
f 529 518 515
f 528 514 511
f 538 525 541
f 538 522 525
f 543 527 523
f 543 523 537
f 547 548 534
f 546 534 532
f 545 531 527
f 545 527 543
f 551 538 542
f 551 542 554
f 556 539 551
f 556 543 539
f 559 563 549
f 557 545 544
f 557 544 556
f 560 549 545
f 565 554 568
f 564 551 554
f 570 555 552
f 570 552 566
f 573 578 563
f 574 563 558
f 572 557 555
f 572 555 571
f 581 565 568
f 579 354 351
f 581 568 354
f 580 352 368
f 583 580 368
f 585 570 566
f 585 566 582
f 588 381 593
f 589 572 569
f 588 594 577
f 587 584 368
f 589 570 584
f 588 384 381
f 586 368 385
f 590 578 573
f 595 432 417
f 595 446 432
f 595 463 446
f 598 479 463
f 598 492 479
f 598 463 595
f 601 417 404
f 601 595 417
f 389 601 404
f 604 509 492
f 604 492 598
f 361 607 601
f 361 601 389
f 524 509 604
f 355 607 361
f 540 604 610
f 540 524 604
f 353 610 607
f 353 607 355
f 553 540 610
f 567 610 353
f 567 553 610
f 274 429 440
f 276 439 459
f 277 274 440
f 286 276 459
f 292 458 454
f 292 285 458
f 297 453 472
f 297 291 453
f 302 471 503
f 302 296 471
f 306 520 535
f 305 504 519
f 305 303 504
f 300 536 550
f 299 306 535
f 294 550 562
f 294 300 550
f 288 561 576
f 289 294 562
f 282 575 592
f 283 288 576
f 280 282 592
f 268 591 380
f 267 379 373
f 268 279 591
f 261 267 373
f 265 398 411
f 264 374 397
f 264 262 374
f 271 412 426
f 270 265 411
f 273 271 426
f 615 596 618
f 618 596 620
f 624 600 615
f 615 600 596
f 627 599 628
f 628 599 622
f 632 605 627
f 627 605 599
f 634 637 606
f 606 640 612
f 637 640 606
f 640 643 612
f 611 647 608
f 608 647 649
f 611 653 647
f 611 642 653
f 656 661 603
f 603 661 597
f 661 621 597
f 609 664 602
f 602 664 654
f 609 668 664
f 609 650 668
f 655 662 657
f 648 646 665
f 641 639 651
f 633 625 635
f 623 614 631
f 619 659 616
f 669 672 674
f 658 672 669
f 663 672 657
f 666 679 663
f 645 680 667
f 671 679 675
f 663 679 671
f 651 682 644
f 680 681 675
f 639 682 652
f 646 681 680
f 636 685 638
f 683 686 673
f 639 687 683
f 636 690 684
f 626 689 636
f 684 689 677
f 629 691 625
f 688 691 676
f 625 691 688
f 614 691 630
f 678 695 670
f 670 695 660
f 616 695 613
f 692 694 677
f 614 694 693
f 659 695 617
f 697 700 702
f 706 709 711
f 712 709 720
f 699 722 701
f 701 721 705
f 724 722 699
f 706 721 708
f 719 727 731
f 710 728 719
f 709 734 728
f 737 732 726
f 721 732 708
f 726 732 723
f 731 739 744
f 727 740 731
f 728 748 738
f 750 747 737
f 733 746 727
f 736 747 733
f 745 756 759
f 760 755 765
f 741 755 745
f 748 768 741
f 771 767 751
f 752 767 747
f 739 769 754
f 754 774 764
f 779 781 772
f 771 781 767
f 766 780 753
f 757 783 776
f 764 784 790
f 775 786 765
f 782 787 773
f 792 794 778
f 782 795 787
f 779 795 781
f 790 798 802
f 796 798 786
f 785 798 790
f 805 807 792
f 795 808 797
f 793 808 794
f 811 813 814
f 801 813 812
f 797 813 801
f 821 824 805
f 808 823 797
f 798 823 813
f 804 822 806
f 816 825 830
f 823 827 813
f 813 825 815
f 820 836 822
f 823 835 826
f 839 836 820
f 827 843 829
f 841 845 838
f 826 846 842
f 850 847 841
f 837 846 828
f 831 852 854
f 843 853 832
f 848 860 843
f 851 858 847
f 863 858 850
f 844 858 852
f 855 867 869
f 853 866 855
f 862 875 859
f 878 875 862
f 858 875 852
f 852 874 865
f 870 881 887
f 868 884 871
f 890 892 877
f 879 893 875
f 875 893 865
f 864 894 880
f 882 896 887
f 888 898 903
f 906 910 891
f 890 907 893
f 882 909 896
f 895 912 883
f 915 921 716
f 902 920 916
f 707 917 703
f 715 917 707
f 897 919 901
f 702 922 697
f 697 924 905
f 905 922 908
f 911 925 897
f 918 923 704
f 896 924 920
f 929 761 763
f 931 762 789
f 932 929 763
f 936 931 789
f 939 799 810
f 940 788 800
f 940 935 788
f 944 939 810
f 946 809 817
f 946 943 809
f 951 834 856
f 950 818 833
f 950 947 818
f 955 951 856
f 959 857 872
f 959 956 857
f 963 885 900
f 964 873 886
f 964 960 873
f 968 963 900
f 972 899 914
f 972 967 899
f 975 913 714
f 975 971 913
f 978 713 717
f 978 974 713
f 982 718 729
f 982 979 718
f 986 730 742
f 986 983 730
f 928 743 758
f 928 987 743
f 735 988 991
f 725 994 988
f 725 988 735
f 749 991 997
f 749 735 991
f 698 994 725
f 770 997 1000
f 770 749 997
f 1003 770 1000
f 696 1006 994
f 696 994 698
f 777 770 1003
f 904 1006 696
f 1009 1006 904
f 1012 777 1003
f 791 777 1012
f 889 1009 904
f 1015 1009 889
f 1018 803 791
f 1018 791 1012
f 876 1015 889
f 1021 876 861
f 1021 1015 876
f 1024 819 803
f 1024 803 1018
f 1027 861 849
f 1027 1021 861
f 1030 840 819
f 1030 819 1024
f 1033 849 840
f 1033 840 1030
f 1033 1027 849
f 953 1037 1041
f 954 957 1037
f 949 1040 1044
f 949 952 1040
f 945 1043 1046
f 945 948 1043
f 941 1046 1048
f 941 945 1046
f 937 1049 1051
f 937 942 1049
f 933 1052 1054
f 933 938 1052
f 930 1055 1057
f 930 934 1055
f 927 1057 1060
f 926 930 1057
f 985 1059 1063
f 985 926 1059
f 981 1062 1066
f 981 984 1062
f 977 1065 1069
f 977 980 1065
f 973 1068 1071
f 973 976 1068
f 969 1071 1073
f 970 1074 1076
f 969 973 1071
f 965 970 1076
f 961 1077 1080
f 962 1081 1038
f 961 966 1078
f 958 962 1038
f 1045 1050 1047
f 1042 1039 1036
f 1042 1053 1050
f 1042 1056 1053
f 1042 1058 1056
f 1042 1061 1058
f 1042 1064 1061
f 1042 1067 1064
f 1042 1070 1067
f 1042 1072 1070
f 1042 1075 1072
f 1042 1079 1075
f 1042 1036 1079
f 1042 1050 1045
f 1085 1087 1091
f 1092 1082 1090
f 1094 1090 1097
f 1100 1104 1083
f 1098 1084 1093
f 1108 1114 1117
f 1107 1118 1124
f 1109 1123 1102
f 1109 1103 1100
f 1129 1097 1131
f 1129 1094 1097
f 1132 1099 1095
f 1134 1093 1128
f 1137 1100 1133
f 1137 1142 1116
f 1136 1115 1111
f 1137 1110 1101
f 1143 1131 1148
f 1144 1127 1131
f 1150 1132 1129
f 1149 1128 1145
f 1152 1135 1149
f 1152 1136 1133
f 1152 1156 1141
f 1153 1142 1138
f 1158 1148 1161
f 1158 1144 1148
f 1163 1146 1159
f 1164 1150 1146
f 1171 1174 1157
f 1169 1150 1165
f 1169 1152 1151
f 1168 1156 1152
f 1177 1162 1179
f 1177 1158 1162
f 1180 1164 1159
f 1180 1159 1177
f 1183 1174 1170
f 1184 1190 1175
f 1184 1172 1166
f 1185 1167 1180
f 1191 1179 1195
f 1191 1177 1179
f 1193 1180 1177
f 1198 1180 1193
f 1200 1207 1210
f 1204 1211 1189
f 1202 1184 1181
f 1203 1188 1182
f 1201 1180 1196
f 1212 1195 1215
f 1212 1192 1195
f 1217 1196 1193
f 1219 1192 1213
f 1220 1226 1207
f 1223 1199 1197
f 1222 1197 1219
f 1221 1207 1200
f 1227 1215 1233
f 1227 1212 1215
f 1235 1216 1213
f 1235 1212 1230
f 1236 1226 1220
f 1239 1220 1218
f 1238 1219 1235
f 1241 1232 1243
f 1240 1235 1228
f 1240 1229 1232
f 1245 1235 1240
f 1248 1251 1226
f 1248 1226 1236
f 1247 1237 1234
f 1247 1235 1245
f 1258 1243 1262
f 1258 1241 1243
f 1263 1244 1240
f 1263 1240 1257
f 1268 1271 1252
f 1267 1246 1264
f 1266 1253 1249
f 1267 1250 1245
f 1276 1262 1279
f 1275 1256 1262
f 1283 1264 1259
f 1283 1260 1276
f 1285 1288 1271
f 1284 1264 1282
f 1284 1272 1269
f 1285 1270 1265
f 1292 1281 1294
f 1292 1276 1280
f 1297 1283 1277
f 1296 1276 1291
f 1302 1305 1288
f 1300 1288 1287
f 1303 1286 1283
f 1301 1283 1297
f 1309 1292 1295
f 1309 1295 1312
f 1313 1292 1309
f 1314 1298 1292
f 1320 1324 1306
f 1316 1301 1298
f 1317 1299 1314
f 1318 1304 1301
f 1326 1312 1329
f 1325 1309 1312
f 1333 1314 1310
f 1330 1309 1326
f 1335 1340 1323
f 1337 1324 1319
f 1335 1315 1314
f 1335 1314 1332
f 1345 1326 1328
f 1342 1087 1085
f 1343 1328 1088
f 1345 1085 1105
f 1346 1344 1105
f 1347 1331 1326
f 1348 1326 1344
f 1350 1121 1357
f 1353 1336 1332
f 1354 1358 1341
f 1350 1348 1105
f 1353 1334 1349
f 1351 1126 1122
f 1350 1106 1125
f 1352 1340 1335
f 1359 1178 1160
f 1359 1194 1178
f 1359 1214 1194
f 1362 1231 1214
f 1362 1242 1231
f 1362 1214 1359
f 1366 1160 1147
f 1366 1359 1160
f 1130 1366 1147
f 1369 1261 1242
f 1369 1242 1362
f 1096 1372 1366
f 1096 1366 1130
f 1278 1261 1369
f 1089 1372 1096
f 1293 1369 1376
f 1293 1278 1369
f 1086 1376 1372
f 1086 1372 1089
f 1311 1293 1376
f 1327 1376 1086
f 1327 1311 1376
f 1002 1176 1187
f 1004 1186 1209
f 1005 1002 1187
f 1014 1004 1209
f 1020 1208 1206
f 1020 1013 1208
f 1026 1205 1225
f 1026 1019 1205
f 1031 1224 1254
f 1031 1025 1224
f 1035 1274 1289
f 1034 1255 1273
f 1034 1032 1255
f 1029 1290 1307
f 1028 1035 1289
f 1023 1308 1322
f 1022 1029 1307
f 1016 1321 1339
f 1017 1023 1322
f 1010 1338 1356
f 1011 1016 1339
f 1008 1010 1356
f 996 1355 1120
f 995 1119 1112
f 996 1007 1355
f 989 995 1112
f 993 1140 1154
f 992 1113 1139
f 992 990 1113
f 999 1155 1173
f 998 993 1154
f 1001 999 1173
f 1382 1360 1385
f 1385 1360 1387
f 1391 1365 1382
f 1382 1365 1360
f 1394 1364 1396
f 1395 1363 1389
f 1400 1370 1393
f 1393 1370 1363
f 1402 1406 1371
f 1371 1410 1378
f 1406 1410 1371
f 1410 1413 1378
f 1377 1417 1373
f 1373 1417 1419
f 1377 1423 1417
f 1377 1412 1423
f 1426 1432 1368
f 1368 1432 1361
f 1432 1388 1361
f 1374 1435 1367
f 1367 1435 1424
f 1375 1441 1436
f 1374 1420 1440
f 1425 1433 1428
f 1418 1416 1437
f 1411 1407 1421
f 1401 1392 1403
f 1390 1381 1399
f 1386 1429 1383
f 1442 1446 1447
f 1427 1445 1442
f 1434 1445 1428
f 1438 1453 1434
f 1415 1454 1439
f 1444 1453 1448
f 1434 1453 1444
f 1421 1457 1414
f 1454 1456 1448
f 1409 1457 1422
f 1416 1456 1455
f 1405 1459 1408
f 1457 1459 1448
f 1409 1459 1457
f 1404 1461 1458
f 1392 1462 1405
f 1458 1462 1451
f 1397 1463 1392
f 1460 1463 1449
f 1392 1463 1461
f 1380 1464 1398
f 1452 1467 1443
f 1443 1467 1431
f 1383 1466 1379
f 1464 1465 1450
f 1381 1465 1464
f 1430 1467 1384

