# https://github.com/mikedh/trimesh
mtllib material.mtl
usemtl Black
v 0.01585876 0.00177700 -0.00003500
v 0.01585876 0.00177700 -0.00003500
v 0.01585876 0.00177700 -0.00003500
v 0.01844589 0.00177700 0.00255214
v 0.01844589 0.00177700 0.00255214
v 0.01844589 0.00177700 0.00255214
v 0.01589500 0.00158262 -0.00003500
v 0.01589500 0.00158262 -0.00003500
v 0.01589500 0.00158262 -0.00003500
v 0.01848626 0.00148999 0.00251177
v 0.01848626 0.00148999 0.00251177
v 0.01848626 0.00148999 0.00251177
v 0.01600125 0.00140152 -0.00003500
v 0.01600125 0.00140152 -0.00003500
v 0.01600125 0.00140152 -0.00003500
v 0.01860122 0.00124667 0.00239681
v 0.01860122 0.00124667 0.00239681
v 0.01860122 0.00124667 0.00239681
v 0.01617024 0.00124609 -0.00003500
v 0.01617024 0.00124609 -0.00003500
v 0.01617024 0.00124609 -0.00003500
v 0.01639043 0.00112693 -0.00003500
v 0.01639043 0.00112693 -0.00003500
v 0.01639043 0.00112693 -0.00003500
v 0.01877327 0.00108409 0.00222475
v 0.01877327 0.00108409 0.00222475
v 0.01877327 0.00108409 0.00222475
v 0.01673727 0.00103814 -0.00003500
v 0.01673727 0.00103814 -0.00003500
v 0.01673727 0.00103814 -0.00003500
v 0.01897622 0.00102700 0.00202181
v 0.01897622 0.00102700 0.00202181
v 0.01897622 0.00102700 0.00202181
v 0.01715157 0.00104519 -0.00003500
v 0.01715157 0.00104519 -0.00003500
v 0.01715157 0.00104519 -0.00003500
v 0.01917917 0.00108409 0.00181886
v 0.01917917 0.00108409 0.00181886
v 0.01917917 0.00108409 0.00181886
v 0.01753043 0.00116395 -0.00003500
v 0.01753043 0.00116395 -0.00003500
v 0.01753043 0.00116395 -0.00003500
v 0.01935122 0.00124667 0.00164681
v 0.01935122 0.00124667 0.00164681
v 0.01935122 0.00124667 0.00164681
v 0.01781601 0.00137631 -0.00003500
v 0.01781601 0.00137631 -0.00003500
v 0.01781601 0.00137631 -0.00003500
v 0.01946618 0.00148999 0.00153184
v 0.01946618 0.00148999 0.00153184
v 0.01946618 0.00148999 0.00153184
v 0.01794838 0.00159501 -0.00003500
v 0.01794838 0.00159501 -0.00003500
v 0.01794838 0.00159501 -0.00003500
v 0.01950655 0.00177700 0.00149148
v 0.01950655 0.00177700 0.00149148
v 0.01950655 0.00177700 0.00149148
v 0.01797986 0.00179226 -0.00003500
v 0.01797986 0.00179226 -0.00003500
v 0.01797986 0.00179226 -0.00003500
v 0.01792898 0.00200699 -0.00003500
v 0.01792898 0.00200699 -0.00003500
v 0.01792898 0.00200699 -0.00003500
v 0.01792898 0.00200699 -0.00003500
v 0.01946618 0.00206401 0.00153184
v 0.01946618 0.00206401 0.00153184
v 0.01946618 0.00206401 0.00153184
v 0.01946618 0.00206401 0.00153184
v 0.01777054 0.00222454 -0.00003500
v 0.01777054 0.00222454 -0.00003500
v 0.01777054 0.00222454 -0.00003500
v 0.01935122 0.00230733 0.00164681
v 0.01935122 0.00230733 0.00164681
v 0.01935122 0.00230733 0.00164681
v 0.01935122 0.00230733 0.00164681
v 0.01741760 0.00243912 -0.00003500
v 0.01741760 0.00243912 -0.00003500
v 0.01741760 0.00243912 -0.00003500
v 0.01741760 0.00243912 -0.00003500
v 0.01917917 0.00246991 0.00181886
v 0.01917917 0.00246991 0.00181886
v 0.01917917 0.00246991 0.00181886
v 0.01897622 0.00252700 0.00202181
v 0.01897622 0.00252700 0.00202181
v 0.01897622 0.00252700 0.00202181
v 0.01897622 0.00252700 0.00202181
v 0.01686784 0.00252611 -0.00003500
v 0.01686784 0.00252611 -0.00003500
v 0.01686784 0.00252611 -0.00003500
v 0.01877328 0.00246991 0.00222475
v 0.01877328 0.00246991 0.00222475
v 0.01877328 0.00246991 0.00222475
v 0.01636829 0.00241780 -0.00003500
v 0.01636829 0.00241780 -0.00003500
v 0.01636829 0.00241780 -0.00003500
v 0.01860122 0.00230733 0.00239681
v 0.01860122 0.00230733 0.00239681
v 0.01860122 0.00230733 0.00239681
v 0.01860122 0.00230733 0.00239681
v 0.01604981 0.00220641 -0.00003500
v 0.01604981 0.00220641 -0.00003500
v 0.01604981 0.00220641 -0.00003500
v 0.01848626 0.00206401 0.00251177
v 0.01848626 0.00206401 0.00251177
v 0.01848626 0.00206401 0.00251177
v 0.01590765 0.00200208 -0.00003500
v 0.01590765 0.00200208 -0.00003500
v 0.01590765 0.00200208 -0.00003500
v 0.01587105 0.00189086 -0.00003500
v 0.01587105 0.00189086 -0.00003500
v 0.01250000 0.00172406 0.00332640
v 0.01250000 0.00172406 0.00332640
v 0.01250000 0.00172406 0.00332640
v 0.01250000 0.00192147 0.00334362
v 0.01250000 0.00192147 0.00334362
v 0.01250000 0.00192147 0.00334362
v 0.01250000 0.00150962 0.00339345
v 0.01250000 0.00150962 0.00339345
v 0.01250000 0.00212508 0.00344490
v 0.01250000 0.00212508 0.00344490
v 0.01250000 0.00212508 0.00344490
v 0.01250000 0.00130429 0.00356096
v 0.01250000 0.00130429 0.00356096
v 0.01250000 0.00130429 0.00356096
v 0.01250000 0.00234017 0.00368392
v 0.01250000 0.00234017 0.00368392
v 0.01250000 0.00110686 0.00390814
v 0.01250000 0.00110686 0.00390814
v 0.01250000 0.00110686 0.00390814
v 0.01250000 0.00250789 0.00414650
v 0.01250000 0.00250789 0.00414650
v 0.01250000 0.00250789 0.00414650
v 0.01250000 0.00102821 0.00444460
v 0.01250000 0.00102821 0.00444460
v 0.01250000 0.00102821 0.00444460
v 0.01250000 0.00251535 0.00457065
v 0.01250000 0.00251535 0.00457065
v 0.01250000 0.00251535 0.00457065
v 0.01250000 0.00114934 0.00496500
v 0.01250000 0.00114934 0.00496500
v 0.01250000 0.00114934 0.00496500
v 0.01250000 0.00114934 0.00496500
v 0.01250000 0.00114934 0.00496500
v 0.01250000 0.00240467 0.00496500
v 0.01250000 0.00240467 0.00496500
v 0.01250000 0.00240467 0.00496500
v 0.01250000 0.00240467 0.00496500
v 0.01250000 0.00177700 0.00544508
v 0.01250000 0.00177700 0.00544508
v 0.01250000 0.00177700 0.00544508
v 0.01402648 0.00177700 0.00697155
v 0.01402648 0.00177700 0.00697155
v 0.01402648 0.00177700 0.00697155
v 0.01250000 0.00157860 0.00540729
v 0.01250000 0.00157860 0.00540729
v 0.01250000 0.00157860 0.00540729
v 0.01406684 0.00148999 0.00693118
v 0.01406684 0.00148999 0.00693118
v 0.01250000 0.00139433 0.00529663
v 0.01250000 0.00139433 0.00529663
v 0.01250000 0.00139433 0.00529663
v 0.01418181 0.00124667 0.00681622
v 0.01418181 0.00124667 0.00681622
v 0.01250000 0.00125841 0.00515065
v 0.01250000 0.00125841 0.00515065
v 0.01250000 0.00125841 0.00515065
v 0.01435386 0.00108409 0.00664417
v 0.01435386 0.00108409 0.00664417
v 0.01435386 0.00108409 0.00664417
v 0.01435386 0.00108409 0.00664417
v 0.01455681 0.00102700 0.00644122
v 0.01455681 0.00102700 0.00644122
v 0.01455681 0.00102700 0.00644122
v 0.01475975 0.00108409 0.00623827
v 0.01475975 0.00108409 0.00623827
v 0.01475975 0.00108409 0.00623827
v 0.01493181 0.00124667 0.00606622
v 0.01493181 0.00124667 0.00606622
v 0.01493181 0.00124667 0.00606622
v 0.01504677 0.00148999 0.00595126
v 0.01504677 0.00148999 0.00595126
v 0.01504677 0.00148999 0.00595126
v 0.01504677 0.00148999 0.00595126
v 0.01508714 0.00177700 0.00591089
v 0.01508714 0.00177700 0.00591089
v 0.01508714 0.00177700 0.00591089
v 0.01504677 0.00206401 0.00595126
v 0.01504677 0.00206401 0.00595126
v 0.01504677 0.00206401 0.00595126
v 0.01504677 0.00206401 0.00595126
v 0.01493181 0.00230733 0.00606622
v 0.01493181 0.00230733 0.00606622
v 0.01493181 0.00230733 0.00606622
v 0.01475975 0.00246991 0.00623827
v 0.01475975 0.00246991 0.00623827
v 0.01455681 0.00252700 0.00644122
v 0.01455681 0.00252700 0.00644122
v 0.01435386 0.00246991 0.00664417
v 0.01435386 0.00246991 0.00664417
v 0.01435386 0.00246991 0.00664417
v 0.01418181 0.00230733 0.00681622
v 0.01418181 0.00230733 0.00681622
v 0.01418181 0.00230733 0.00681622
v 0.01250000 0.00223746 0.00522165
v 0.01250000 0.00223746 0.00522165
v 0.01406684 0.00206401 0.00693118
v 0.01406684 0.00206401 0.00693118
v 0.01406684 0.00206401 0.00693118
v 0.01250000 0.00202040 0.00538767
v 0.01250000 0.00202040 0.00538767
v 0.01250000 0.00190038 0.00543063
v 0.01250000 0.00190038 0.00543063
v 0.01250000 0.00190038 0.00543063
v 0.01250000 0.00737500 0.01146500
v 0.01250000 0.00737500 0.01146500
v 0.01250000 0.00737500 0.01146500
v 0.01250000 0.00300000 0.00496500
v 0.01250000 0.00300000 0.00496500
v 0.01250000 0.00300000 0.00496500
v 0.01250000 0.00737500 -0.00003500
v 0.01250000 0.00737500 -0.00003500
v 0.01250000 0.00737500 -0.00003500
v 0.01250000 -0.00737500 0.01146500
v 0.01250000 -0.00737500 0.01146500
v 0.01250000 -0.00737500 0.01146500
v 0.01250000 0.00300000 -0.00003500
v 0.01250000 0.00300000 -0.00003500
v 0.01250000 0.00300000 -0.00003500
v 0.01250000 -0.00300000 0.00496500
v 0.01250000 -0.00300000 0.00496500
v 0.01250000 -0.00300000 0.00496500
v 0.01250000 -0.00737500 -0.00003500
v 0.01250000 -0.00737500 -0.00003500
v 0.01250000 -0.00737500 -0.00003500
v 0.01250000 -0.00300000 -0.00003500
v 0.01250000 -0.00300000 -0.00003500
v 0.01250000 -0.00300000 -0.00003500
v 0.02214756 -0.00595311 0.01668370
v 0.02214756 -0.00595311 0.01668370
v 0.02214756 -0.00595311 0.01668370
v 0.02214756 -0.00419906 0.01668370
v 0.02214756 -0.00419906 0.01668370
v 0.02214756 -0.00419906 0.01668370
v 0.02331429 -0.00595311 0.01785043
v 0.02331429 -0.00595311 0.01785043
v 0.02331429 -0.00595311 0.01785043
v 0.01843525 -0.00309952 0.01297139
v 0.01843525 -0.00309952 0.01297139
v 0.01843525 -0.00309952 0.01297139
v 0.02331429 -0.00165000 0.01785043
v 0.02331429 -0.00165000 0.01785043
v 0.02331429 -0.00165000 0.01785043
v 0.01641292 -0.00165000 0.01094906
v 0.01641292 -0.00165000 0.01094906
v 0.01641292 -0.00165000 0.01094906
v 0.02550631 -0.00309952 0.00590032
v 0.02550631 -0.00309952 0.00590032
v 0.02550631 -0.00309952 0.00590032
v 0.02348399 -0.00165000 0.00387800
v 0.02348399 -0.00165000 0.00387800
v 0.02348399 -0.00165000 0.00387800
v 0.02921863 -0.00419906 0.00961263
v 0.02921863 -0.00419906 0.00961263
v 0.02921863 -0.00419906 0.00961263
v 0.02921863 -0.00595311 0.00961263
v 0.02921863 -0.00595311 0.00961263
v 0.02921863 -0.00595311 0.00961263
v 0.03038535 -0.00595311 0.01077936
v 0.03038535 -0.00595311 0.01077936
v 0.03038535 -0.00595311 0.01077936
v 0.03038535 -0.00165000 0.01077936
v 0.03038535 -0.00165000 0.01077936
v 0.03038535 -0.00165000 0.01077936
v 0.03090901 0.00412500 0.01025570
v 0.03090901 0.00412500 0.01025570
v 0.03090901 0.00412500 0.01025570
v 0.03122469 0.00375000 0.00994002
v 0.03122469 0.00375000 0.00994002
v 0.03122469 0.00375000 0.00994002
v 0.03264644 0.00375000 0.00851827
v 0.03264644 0.00375000 0.00851827
v 0.03264644 0.00375000 0.00851827
v 0.03264644 0.00737500 0.00851827
v 0.03264644 0.00737500 0.00851827
v 0.03264644 0.00737500 0.00851827
v 0.03264644 -0.00737500 0.00851827
v 0.03264644 -0.00737500 0.00851827
v 0.03264644 -0.00737500 0.00851827
v 0.03264644 -0.00375000 0.00851827
v 0.03264644 -0.00375000 0.00851827
v 0.03264644 -0.00375000 0.00851827
v 0.03122469 -0.00375000 0.00994002
v 0.03122469 -0.00375000 0.00994002
v 0.03122469 -0.00375000 0.00994002
v 0.02120341 0.00737500 0.01996130
v 0.02120341 0.00737500 0.01996130
v 0.02120341 0.00737500 0.01996130
v 0.02279063 0.00412500 0.01837408
v 0.02279063 0.00412500 0.01837408
v 0.02279063 0.00412500 0.01837408
v 0.02279063 -0.00165000 0.01837408
v 0.02279063 -0.00165000 0.01837408
v 0.02279063 -0.00165000 0.01837408
v 0.02120341 -0.00737500 0.01996130
v 0.02120341 -0.00737500 0.01996130
v 0.02120341 -0.00737500 0.01996130
v 0.03090901 -0.00165000 0.01025570
v 0.03090901 -0.00165000 0.01025570
v 0.03090901 -0.00165000 0.01025570
v 0.01285355 0.00737500 0.01231855
v 0.01285355 0.00737500 0.01231855
v 0.01285355 0.00737500 0.01231855
v 0.01285355 -0.00737500 0.01231855
v 0.01285355 -0.00737500 0.01231855
v 0.01285355 -0.00737500 0.01231855
v 0.03250000 0.00737500 0.00816471
v 0.03250000 0.00737500 0.00816471
v 0.03250000 0.00737500 0.00816471
v 0.03250000 0.00737500 -0.00003500
v 0.03250000 0.00737500 -0.00003500
v 0.03250000 0.00737500 -0.00003500
v 0.02049630 0.00737500 0.01996130
v 0.02049630 0.00737500 0.01996130
v 0.02049630 0.00737500 0.01996130
v 0.02049630 -0.00737500 0.01996130
v 0.02049630 -0.00737500 0.01996130
v 0.02049630 -0.00737500 0.01996130
v 0.03285355 0.00325000 0.00901827
v 0.03285355 0.00325000 0.00901827
v 0.03285355 0.00325000 0.00901827
v 0.03285355 0.00325000 0.00901827
v 0.03157825 0.00325000 0.01029357
v 0.03157825 0.00325000 0.01029357
v 0.03157825 0.00325000 0.01029357
v 0.03494408 0.00325000 0.01365940
v 0.03494408 0.00325000 0.01365940
v 0.03494408 0.00325000 0.01365940
v 0.03621938 0.00325000 0.01238410
v 0.03621938 0.00325000 0.01238410
v 0.03621938 0.00325000 0.01238410
v 0.03565119 0.00325000 0.01365940
v 0.03565119 0.00325000 0.01365940
v 0.03565119 0.00325000 0.01365940
v 0.03621938 0.00325000 0.01309120
v 0.03621938 0.00325000 0.01309120
v 0.03621938 0.00325000 0.01309120
v 0.03285355 -0.00325000 0.00901827
v 0.03285355 -0.00325000 0.00901827
v 0.03285355 -0.00325000 0.00901827
v 0.03285355 -0.00325000 0.00901827
v 0.03157825 -0.00325000 0.01029357
v 0.03157825 -0.00325000 0.01029357
v 0.03157825 -0.00325000 0.01029357
v 0.03250000 -0.00737500 0.00816471
v 0.03250000 -0.00737500 0.00816471
v 0.03250000 -0.00737500 0.00816471
v 0.03250000 0.00300000 0.00496500
v 0.03250000 0.00300000 0.00496500
v 0.03250000 0.00300000 0.00496500
v 0.03250000 0.00300000 -0.00003500
v 0.03250000 0.00300000 -0.00003500
v 0.03250000 0.00300000 -0.00003500
v 0.03250000 -0.00300000 0.00496500
v 0.03250000 -0.00300000 0.00496500
v 0.03250000 -0.00300000 0.00496500
v 0.03250000 -0.00737500 -0.00003500
v 0.03250000 -0.00737500 -0.00003500
v 0.03250000 -0.00737500 -0.00003500
v 0.03250000 -0.00300000 -0.00003500
v 0.03250000 -0.00300000 -0.00003500
v 0.03250000 -0.00300000 -0.00003500
v 0.03621938 -0.00325000 0.01309120
v 0.03621938 -0.00325000 0.01309120
v 0.03621938 -0.00325000 0.01309120
v 0.03621938 -0.00325000 0.01238410
v 0.03621938 -0.00325000 0.01238410
v 0.03621938 -0.00325000 0.01238410
v 0.03565119 -0.00325000 0.01365940
v 0.03565119 -0.00325000 0.01365940
v 0.03565119 -0.00325000 0.01365940
v 0.03494407 -0.00325000 0.01365940
v 0.03494407 -0.00325000 0.01365940
v 0.03494407 -0.00325000 0.01365940
v 0.02153012 -0.00165000 0.01711358
v 0.02153012 -0.00165000 0.01711358
v 0.02153012 -0.00165000 0.01711358
v 0.02153012 -0.00165000 0.01666790
v 0.02153012 -0.00165000 0.01666790
v 0.02153012 -0.00165000 0.01666790
v 0.02964850 -0.00165000 0.00899520
v 0.02964850 -0.00165000 0.00899520
v 0.02964850 -0.00165000 0.00899520
v 0.02920283 -0.00165000 0.00899520
v 0.02920283 -0.00165000 0.00899520
v 0.02920283 -0.00165000 0.00899520
v 0.01293013 -0.00165000 0.00806790
v 0.01293013 -0.00165000 0.00806790
v 0.01293013 -0.00165000 0.00806790
v 0.02060283 -0.00165000 0.00039520
v 0.02060283 -0.00165000 0.00039520
v 0.02060283 -0.00165000 0.00039520
v 0.02964850 0.00412500 0.00899520
v 0.02964850 0.00412500 0.00899520
v 0.02964850 0.00412500 0.00899520
v 0.02153012 0.00412500 0.01711358
v 0.02153012 0.00412500 0.01711358
v 0.02153012 0.00412500 0.01711358
v 0.02153012 0.00412500 0.01666790
v 0.02153012 0.00412500 0.01666790
v 0.02153012 0.00412500 0.01666790
v 0.01293013 0.00412500 0.00806790
v 0.01293013 0.00412500 0.00806790
v 0.01293013 0.00412500 0.00806790
v 0.02060283 0.00412500 0.00039520
v 0.02060283 0.00412500 0.00039520
v 0.02060283 0.00412500 0.00039520
v 0.02920283 0.00412500 0.00899520
v 0.02920283 0.00412500 0.00899520
v 0.02920283 0.00412500 0.00899520
v 0.04398373 -0.00042095 0.00296500
v 0.04398373 -0.00042095 0.00296500
v 0.04398373 -0.00042095 0.00296500
v 0.04296746 -0.00084190 0.00296500
v 0.04296746 -0.00084190 0.00296500
v 0.04296746 -0.00084190 0.00296500
v 0.04344436 -0.00155563 0.00296500
v 0.04344436 -0.00155563 0.00296500
v 0.04422218 -0.00077782 0.00296500
v 0.04422218 -0.00077782 0.00296500
v 0.04422218 -0.00077782 0.00296500
v 0.04457904 -0.00101627 0.00296500
v 0.04457904 -0.00101627 0.00296500
v 0.04457904 -0.00101627 0.00296500
v 0.04415809 -0.00203253 0.00296500
v 0.04415809 -0.00203253 0.00296500
v 0.04415809 -0.00203253 0.00296500
v 0.04390000 0.00000000 0.00296500
v 0.04390000 0.00000000 0.00296500
v 0.04390000 0.00000000 0.00296500
v 0.04390000 0.00000000 0.00296500
v 0.04280000 0.00000000 0.00296500
v 0.04280000 0.00000000 0.00296500
v 0.04280000 0.00000000 0.00296500
v 0.04500000 -0.00110000 0.00296500
v 0.04500000 -0.00110000 0.00296500
v 0.04500000 -0.00110000 0.00296500
v 0.04500000 -0.00220000 0.00296500
v 0.04500000 -0.00220000 0.00296500
v 0.04500000 -0.00220000 0.00296500
v 0.04398373 0.00042095 0.00296500
v 0.04398373 0.00042095 0.00296500
v 0.04398373 0.00042095 0.00296500
v 0.04296747 0.00084191 0.00296500
v 0.04296747 0.00084191 0.00296500
v 0.04296747 0.00084191 0.00296500
v 0.04542095 -0.00101627 0.00296500
v 0.04542095 -0.00101627 0.00296500
v 0.04542095 -0.00101627 0.00296500
v 0.04584190 -0.00203253 0.00296500
v 0.04584190 -0.00203253 0.00296500
v 0.04584190 -0.00203253 0.00296500
v 0.04422218 0.00077782 0.00296500
v 0.04422218 0.00077782 0.00296500
v 0.04344436 0.00155564 0.00296500
v 0.04344436 0.00155564 0.00296500
v 0.04344436 0.00155564 0.00296500
v 0.04577782 -0.00077782 0.00296500
v 0.04577782 -0.00077782 0.00296500
v 0.04655563 -0.00155563 0.00296500
v 0.04655563 -0.00155563 0.00296500
v 0.04655563 -0.00155563 0.00296500
v 0.04601626 -0.00042095 0.00296500
v 0.04601626 -0.00042095 0.00296500
v 0.04601626 -0.00042095 0.00296500
v 0.04415809 0.00203254 0.00296500
v 0.04415809 0.00203254 0.00296500
v 0.04415809 0.00203254 0.00296500
v 0.04457905 0.00101627 0.00296500
v 0.04457905 0.00101627 0.00296500
v 0.04499999 0.00110000 0.00296500
v 0.04499999 0.00110000 0.00296500
v 0.04499999 0.00110000 0.00296500
v 0.04703253 -0.00084190 0.00296500
v 0.04703253 -0.00084190 0.00296500
v 0.04703253 -0.00084190 0.00296500
v 0.04500000 0.00220000 0.00296500
v 0.04500000 0.00220000 0.00296500
v 0.04720000 0.00000000 0.00296500
v 0.04720000 0.00000000 0.00296500
v 0.04720000 0.00000000 0.00296500
v 0.04610000 0.00000000 0.00296500
v 0.04610000 0.00000000 0.00296500
v 0.04610000 0.00000000 0.00296500
v 0.04584190 0.00203254 0.00296500
v 0.04584190 0.00203254 0.00296500
v 0.04584190 0.00203254 0.00296500
v 0.04542095 0.00101627 0.00296500
v 0.04542095 0.00101627 0.00296500
v 0.04542095 0.00101627 0.00296500
v 0.04577782 0.00077782 0.00296500
v 0.04577782 0.00077782 0.00296500
v 0.04577782 0.00077782 0.00296500
v 0.04703253 0.00084191 0.00296500
v 0.04703253 0.00084191 0.00296500
v 0.04703253 0.00084191 0.00296500
v 0.04601626 0.00042095 0.00296500
v 0.04601626 0.00042095 0.00296500
v 0.04601626 0.00042095 0.00296500
v 0.04655563 0.00155564 0.00296500
v 0.04655563 0.00155564 0.00296500
v 0.04655563 0.00155564 0.00296500
v 0.04280000 0.00000000 0.00496500
v 0.04280000 0.00000000 0.00496500
v 0.04280000 0.00000000 0.00496500
v 0.04296746 -0.00084190 0.00496500
v 0.04296746 -0.00084190 0.00496500
v 0.04296746 -0.00084190 0.00496500
v 0.04344436 -0.00155563 0.00496500
v 0.04344436 -0.00155563 0.00496500
v 0.04415809 -0.00203253 0.00496500
v 0.04415809 -0.00203253 0.00496500
v 0.04415809 -0.00203253 0.00496500
v 0.04500000 -0.00220000 0.00496500
v 0.04500000 -0.00220000 0.00496500
v 0.04500000 -0.00220000 0.00496500
v 0.04584190 -0.00203253 0.00496500
v 0.04584190 -0.00203253 0.00496500
v 0.04584190 -0.00203253 0.00496500
v 0.04655563 -0.00155563 0.00496500
v 0.04655563 -0.00155563 0.00496500
v 0.04655563 -0.00155563 0.00496500
v 0.04703253 -0.00084190 0.00496500
v 0.04703253 -0.00084190 0.00496500
v 0.04703253 -0.00084190 0.00496500
v 0.04720000 0.00000000 0.00496500
v 0.04720000 0.00000000 0.00496500
v 0.04720000 0.00000000 0.00496500
v 0.04703253 0.00084191 0.00496500
v 0.04703253 0.00084191 0.00496500
v 0.04703253 0.00084191 0.00496500
v 0.04655563 0.00155564 0.00496500
v 0.04655563 0.00155564 0.00496500
v 0.04655563 0.00155564 0.00496500
v 0.04584190 0.00203254 0.00496500
v 0.04584190 0.00203254 0.00496500
v 0.04584190 0.00203254 0.00496500
v 0.04500000 0.00220000 0.00496500
v 0.04500000 0.00220000 0.00496500
v 0.04415809 0.00203254 0.00496500
v 0.04415809 0.00203254 0.00496500
v 0.04415809 0.00203254 0.00496500
v 0.04344436 0.00155564 0.00496500
v 0.04344436 0.00155564 0.00496500
v 0.04344436 0.00155564 0.00496500
v 0.04296747 0.00084191 0.00496500
v 0.04296747 0.00084191 0.00496500
v 0.04296747 0.00084191 0.00496500
v 0.04390000 0.00000000 -0.00003500
v 0.04390000 0.00000000 -0.00003500
v 0.04390000 0.00000000 -0.00003500
v 0.04398373 -0.00042095 -0.00003500
v 0.04398373 -0.00042095 -0.00003500
v 0.04398373 -0.00042095 -0.00003500
v 0.04422218 -0.00077782 -0.00003500
v 0.04422218 -0.00077782 -0.00003500
v 0.04422218 -0.00077782 -0.00003500
v 0.04457904 -0.00101627 -0.00003500
v 0.04457904 -0.00101627 -0.00003500
v 0.04457904 -0.00101627 -0.00003500
v 0.04500000 -0.00110000 -0.00003500
v 0.04500000 -0.00110000 -0.00003500
v 0.04500000 -0.00110000 -0.00003500
v 0.04542095 -0.00101627 -0.00003500
v 0.04542095 -0.00101627 -0.00003500
v 0.04577782 -0.00077782 -0.00003500
v 0.04577782 -0.00077782 -0.00003500
v 0.04601626 -0.00042095 -0.00003500
v 0.04601626 -0.00042095 -0.00003500
v 0.04601626 -0.00042095 -0.00003500
v 0.04610000 0.00000000 -0.00003500
v 0.04610000 0.00000000 -0.00003500
v 0.04610000 0.00000000 -0.00003500
v 0.04601626 0.00042095 -0.00003500
v 0.04601626 0.00042095 -0.00003500
v 0.04601626 0.00042095 -0.00003500
v 0.04577782 0.00077782 -0.00003500
v 0.04577782 0.00077782 -0.00003500
v 0.04577782 0.00077782 -0.00003500
v 0.04542095 0.00101627 -0.00003500
v 0.04542095 0.00101627 -0.00003500
v 0.04542095 0.00101627 -0.00003500
v 0.04499999 0.00110000 -0.00003500
v 0.04499999 0.00110000 -0.00003500
v 0.04499999 0.00110000 -0.00003500
v 0.04457905 0.00101627 -0.00003500
v 0.04457905 0.00101627 -0.00003500
v 0.04422218 0.00077782 -0.00003500
v 0.04422218 0.00077782 -0.00003500
v 0.04398373 0.00042095 -0.00003500
v 0.04398373 0.00042095 -0.00003500
v 0.04398373 0.00042095 -0.00003500
v 0.04398373 0.00042095 -0.00003500
v -0.00042095 -0.00101627 0.00296500
v -0.00042095 -0.00101627 0.00296500
v -0.00042095 -0.00101627 0.00296500
v -0.00155564 -0.00155563 0.00296500
v -0.00155564 -0.00155563 0.00296500
v -0.00084190 -0.00203253 0.00296500
v -0.00084190 -0.00203253 0.00296500
v -0.00084190 -0.00203253 0.00296500
v -0.00077782 -0.00077782 0.00296500
v -0.00077782 -0.00077782 0.00296500
v -0.00077782 -0.00077782 0.00296500
v -0.00101627 -0.00042095 0.00296500
v -0.00101627 -0.00042095 0.00296500
v -0.00101627 -0.00042095 0.00296500
v -0.00203254 -0.00084190 0.00296500
v -0.00203254 -0.00084190 0.00296500
v -0.00203254 -0.00084190 0.00296500
v -0.00000000 -0.00110000 0.00296500
v -0.00000000 -0.00110000 0.00296500
v -0.00000000 -0.00110000 0.00296500
v -0.00000000 -0.00220000 0.00296500
v -0.00000000 -0.00220000 0.00296500
v -0.00000000 -0.00220000 0.00296500
v 0.00084190 -0.00203253 0.00296500
v 0.00084190 -0.00203253 0.00296500
v 0.00084190 -0.00203253 0.00296500
v -0.00110000 0.00000000 0.00296500
v -0.00110000 0.00000000 0.00296500
v -0.00110000 0.00000000 0.00296500
v -0.00220000 0.00000000 0.00296500
v -0.00220000 0.00000000 0.00296500
v -0.00220000 0.00000000 0.00296500
v -0.00101627 0.00042095 0.00296500
v -0.00101627 0.00042095 0.00296500
v -0.00101627 0.00042095 0.00296500
v -0.00203254 0.00084190 0.00296500
v -0.00203254 0.00084190 0.00296500
v -0.00203254 0.00084190 0.00296500
v 0.00042095 -0.00101627 0.00296500
v 0.00042095 -0.00101627 0.00296500
v 0.00042095 -0.00101627 0.00296500
v -0.00077782 0.00077782 0.00296500
v -0.00077782 0.00077782 0.00296500
v -0.00155564 0.00155564 0.00296500
v -0.00155564 0.00155564 0.00296500
v -0.00155564 0.00155564 0.00296500
v 0.00155563 -0.00155563 0.00296500
v 0.00155563 -0.00155563 0.00296500
v 0.00155563 -0.00155563 0.00296500
v 0.00077782 -0.00077782 0.00296500
v 0.00077782 -0.00077782 0.00296500
v -0.00042095 0.00101627 0.00296500
v -0.00042095 0.00101627 0.00296500
v -0.00084191 0.00203254 0.00296500
v -0.00084191 0.00203254 0.00296500
v -0.00084191 0.00203254 0.00296500
v 0.00203253 -0.00084190 0.00296500
v 0.00203253 -0.00084190 0.00296500
v 0.00203253 -0.00084190 0.00296500
v 0.00101627 -0.00042095 0.00296500
v 0.00101627 -0.00042095 0.00296500
v 0.00101627 -0.00042095 0.00296500
v 0.00110000 0.00000000 0.00296500
v 0.00110000 0.00000000 0.00296500
v 0.00110000 0.00000000 0.00296500
v -0.00000000 0.00220000 0.00296500
v -0.00000000 0.00220000 0.00296500
v -0.00000000 0.00110000 0.00296500
v -0.00000000 0.00110000 0.00296500
v -0.00000000 0.00110000 0.00296500
v 0.00220000 0.00000000 0.00296500
v 0.00220000 0.00000000 0.00296500
v 0.00220000 0.00000000 0.00296500
v 0.00084190 0.00203254 0.00296500
v 0.00084190 0.00203254 0.00296500
v 0.00042095 0.00101627 0.00296500
v 0.00042095 0.00101627 0.00296500
v 0.00042095 0.00101627 0.00296500
v 0.00077782 0.00077782 0.00296500
v 0.00077782 0.00077782 0.00296500
v 0.00203253 0.00084190 0.00296500
v 0.00203253 0.00084190 0.00296500
v 0.00203253 0.00084190 0.00296500
v 0.00101627 0.00042095 0.00296500
v 0.00101627 0.00042095 0.00296500
v 0.00101627 0.00042095 0.00296500
v 0.00155563 0.00155564 0.00296500
v 0.00155563 0.00155564 0.00296500
v 0.00155563 0.00155564 0.00296500
v -0.00220000 0.00000000 0.00496500
v -0.00220000 0.00000000 0.00496500
v -0.00220000 0.00000000 0.00496500
v -0.00203254 -0.00084190 0.00496500
v -0.00203254 -0.00084190 0.00496500
v -0.00203254 -0.00084190 0.00496500
v -0.00155564 -0.00155563 0.00496500
v -0.00155564 -0.00155563 0.00496500
v -0.00084190 -0.00203253 0.00496500
v -0.00084190 -0.00203253 0.00496500
v -0.00084190 -0.00203253 0.00496500
v -0.00000000 -0.00220000 0.00496500
v -0.00000000 -0.00220000 0.00496500
v -0.00000000 -0.00220000 0.00496500
v 0.00084190 -0.00203253 0.00496500
v 0.00084190 -0.00203253 0.00496500
v 0.00084190 -0.00203253 0.00496500
v 0.00155563 -0.00155563 0.00496500
v 0.00155563 -0.00155563 0.00496500
v 0.00155563 -0.00155563 0.00496500
v 0.00203253 -0.00084190 0.00496500
v 0.00203253 -0.00084190 0.00496500
v 0.00203253 -0.00084190 0.00496500
v 0.00220000 0.00000000 0.00496500
v 0.00220000 0.00000000 0.00496500
v 0.00220000 0.00000000 0.00496500
v 0.00203253 0.00084190 0.00496500
v 0.00203253 0.00084190 0.00496500
v 0.00203253 0.00084190 0.00496500
v 0.00155563 0.00155564 0.00496500
v 0.00155563 0.00155564 0.00496500
v 0.00155563 0.00155564 0.00496500
v 0.00084190 0.00203254 0.00496500
v 0.00084190 0.00203254 0.00496500
v -0.00000000 0.00220000 0.00496500
v -0.00000000 0.00220000 0.00496500
v -0.00084191 0.00203254 0.00496500
v -0.00084191 0.00203254 0.00496500
v -0.00084191 0.00203254 0.00496500
v -0.00155564 0.00155564 0.00496500
v -0.00155564 0.00155564 0.00496500
v -0.00155564 0.00155564 0.00496500
v -0.00203254 0.00084190 0.00496500
v -0.00203254 0.00084190 0.00496500
v -0.00203254 0.00084190 0.00496500
v -0.00110000 0.00000000 -0.00003500
v -0.00110000 0.00000000 -0.00003500
v -0.00110000 0.00000000 -0.00003500
v -0.00101627 -0.00042095 -0.00003500
v -0.00101627 -0.00042095 -0.00003500
v -0.00101627 -0.00042095 -0.00003500
v -0.00077782 -0.00077782 -0.00003500
v -0.00077782 -0.00077782 -0.00003500
v -0.00077782 -0.00077782 -0.00003500
v -0.00042095 -0.00101627 -0.00003500
v -0.00042095 -0.00101627 -0.00003500
v -0.00042095 -0.00101627 -0.00003500
v -0.00000000 -0.00110000 -0.00003500
v -0.00000000 -0.00110000 -0.00003500
v -0.00000000 -0.00110000 -0.00003500
v 0.00042095 -0.00101627 -0.00003500
v 0.00042095 -0.00101627 -0.00003500
v 0.00042095 -0.00101627 -0.00003500
v 0.00042095 -0.00101627 -0.00003500
v 0.00077782 -0.00077782 -0.00003500
v 0.00077782 -0.00077782 -0.00003500
v 0.00101627 -0.00042095 -0.00003500
v 0.00101627 -0.00042095 -0.00003500
v 0.00101627 -0.00042095 -0.00003500
v 0.00110000 0.00000000 -0.00003500
v 0.00110000 0.00000000 -0.00003500
v 0.00110000 0.00000000 -0.00003500
v 0.00101627 0.00042095 -0.00003500
v 0.00101627 0.00042095 -0.00003500
v 0.00101627 0.00042095 -0.00003500
v 0.00077782 0.00077782 -0.00003500
v 0.00077782 0.00077782 -0.00003500
v 0.00077782 0.00077782 -0.00003500
v 0.00042095 0.00101627 -0.00003500
v 0.00042095 0.00101627 -0.00003500
v 0.00042095 0.00101627 -0.00003500
v -0.00000000 0.00110000 -0.00003500
v -0.00000000 0.00110000 -0.00003500
v -0.00000000 0.00110000 -0.00003500
v -0.00042095 0.00101627 -0.00003500
v -0.00042095 0.00101627 -0.00003500
v -0.00077782 0.00077782 -0.00003500
v -0.00077782 0.00077782 -0.00003500
v -0.00101627 0.00042095 -0.00003500
v -0.00101627 0.00042095 -0.00003500
v -0.00101627 0.00042095 -0.00003500
v -0.00101627 0.00042095 -0.00003500
v -0.00000000 -0.00300000 -0.00003500
v -0.00000000 -0.00300000 -0.00003500
v -0.00000000 -0.00300000 -0.00003500
v -0.00000000 -0.00300000 0.00496500
v -0.00000000 -0.00300000 0.00496500
v -0.00000000 -0.00300000 0.00496500
v -0.00114805 0.00277164 0.00496500
v -0.00114805 0.00277164 0.00496500
v -0.00000000 0.00300000 -0.00003500
v -0.00000000 0.00300000 -0.00003500
v -0.00000000 0.00300000 -0.00003500
v -0.00114805 0.00277164 -0.00003500
v -0.00114805 0.00277164 -0.00003500
v -0.00000000 0.00300000 0.00496500
v -0.00000000 0.00300000 0.00496500
v -0.00000000 0.00300000 0.00496500
v -0.00212132 0.00212132 0.00496500
v -0.00212132 0.00212132 0.00496500
v -0.00212132 0.00212132 0.00496500
v -0.00212132 0.00212132 -0.00003500
v -0.00212132 0.00212132 -0.00003500
v -0.00212132 0.00212132 -0.00003500
v -0.00277164 0.00114805 0.00496500
v -0.00277164 0.00114805 0.00496500
v -0.00277164 0.00114805 0.00496500
v -0.00277164 0.00114805 -0.00003500
v -0.00277164 0.00114805 -0.00003500
v -0.00277164 0.00114805 -0.00003500
v -0.00300000 0.00000000 0.00496500
v -0.00300000 0.00000000 0.00496500
v -0.00300000 0.00000000 -0.00003500
v -0.00300000 0.00000000 -0.00003500
v -0.00277164 -0.00114805 -0.00003500
v -0.00277164 -0.00114805 -0.00003500
v -0.00277164 -0.00114805 -0.00003500
v -0.00277164 -0.00114805 0.00496500
v -0.00277164 -0.00114805 0.00496500
v -0.00277164 -0.00114805 0.00496500
v -0.00212132 -0.00212132 0.00496500
v -0.00212132 -0.00212132 0.00496500
v -0.00212132 -0.00212132 0.00496500
v -0.00212132 -0.00212132 -0.00003500
v -0.00212132 -0.00212132 -0.00003500
v -0.00212132 -0.00212132 -0.00003500
v -0.00114805 -0.00277164 0.00496500
v -0.00114805 -0.00277164 0.00496500
v -0.00114805 -0.00277164 -0.00003500
v -0.00114805 -0.00277164 -0.00003500
v 0.04500000 0.00300000 -0.00003500
v 0.04500000 0.00300000 -0.00003500
v 0.04500000 0.00300000 -0.00003500
v 0.04500000 0.00300000 0.00496500
v 0.04500000 0.00300000 0.00496500
v 0.04500000 0.00300000 0.00496500
v 0.04614804 -0.00277164 0.00496500
v 0.04614804 -0.00277164 0.00496500
v 0.04614804 -0.00277164 0.00496500
v 0.04499999 -0.00300000 -0.00003500
v 0.04499999 -0.00300000 -0.00003500
v 0.04499999 -0.00300000 -0.00003500
v 0.04614804 -0.00277164 -0.00003500
v 0.04614804 -0.00277164 -0.00003500
v 0.04499999 -0.00300000 0.00496500
v 0.04499999 -0.00300000 0.00496500
v 0.04499999 -0.00300000 0.00496500
v 0.04712132 -0.00212132 0.00496500
v 0.04712132 -0.00212132 0.00496500
v 0.04712132 -0.00212132 0.00496500
v 0.04712132 -0.00212132 -0.00003500
v 0.04712132 -0.00212132 -0.00003500
v 0.04712132 -0.00212132 -0.00003500
v 0.04777163 -0.00114805 0.00496500
v 0.04777163 -0.00114805 0.00496500
v 0.04777163 -0.00114805 0.00496500
v 0.04777163 -0.00114805 -0.00003500
v 0.04777163 -0.00114805 -0.00003500
v 0.04777163 -0.00114805 -0.00003500
v 0.04800000 0.00000000 0.00496500
v 0.04800000 0.00000000 0.00496500
v 0.04800000 0.00000000 -0.00003500
v 0.04800000 0.00000000 -0.00003500
v 0.04777164 0.00114805 0.00496500
v 0.04777164 0.00114805 0.00496500
v 0.04777164 0.00114805 0.00496500
v 0.04777164 0.00114805 -0.00003500
v 0.04777164 0.00114805 -0.00003500
v 0.04777164 0.00114805 -0.00003500
v 0.04712132 0.00212132 0.00496500
v 0.04712132 0.00212132 0.00496500
v 0.04712132 0.00212132 0.00496500
v 0.04712132 0.00212132 -0.00003500
v 0.04712132 0.00212132 -0.00003500
v 0.04712132 0.00212132 -0.00003500
v 0.04614804 0.00277164 -0.00003500
v 0.04614804 0.00277164 -0.00003500
v 0.04614804 0.00277164 -0.00003500
v 0.04614804 0.00277164 0.00496500
v 0.04614804 0.00277164 0.00496500
f 3 5 9
f 8 10 15
f 5 11 9
f 14 16 21
f 20 16 24
f 11 17 15
f 23 25 30
f 16 26 24
f 29 32 35
f 25 32 30
f 36 38 41
f 31 38 36
f 42 45 48
f 39 44 42
f 47 50 53
f 45 50 48
f 54 56 60
f 59 57 62
f 51 56 53
f 63 67 71
f 57 68 64
f 70 73 79
f 66 75 71
f 74 82 78
f 78 84 88
f 81 85 77
f 89 90 94
f 86 90 89
f 95 97 101
f 91 96 95
f 102 103 107
f 108 104 110
f 98 103 102
f 104 4 110
f 110 4 2
f 111 114 117
f 117 119 122
f 114 119 117
f 122 125 127
f 119 125 122
f 127 130 135
f 125 130 127
f 135 138 142
f 130 138 135
f 138 146 142
f 149 152 155
f 154 157 160
f 152 157 154
f 159 162 165
f 164 162 141
f 157 162 160
f 140 168 134
f 162 169 141
f 167 172 134
f 133 175 128
f 171 175 133
f 129 178 123
f 176 178 129
f 124 181 118
f 118 182 112
f 179 181 124
f 113 186 116
f 183 185 112
f 115 188 121
f 186 189 116
f 120 192 126
f 190 192 120
f 126 195 132
f 193 195 126
f 131 197 137
f 195 197 132
f 136 198 145
f 197 198 136
f 145 201 204
f 199 201 145
f 202 206 204
f 204 206 209
f 209 207 211
f 207 151 211
f 212 151 148
f 210 216 219
f 210 219 205
f 147 205 219
f 222 219 216
f 213 216 210
f 150 216 213
f 156 216 150
f 225 216 156
f 228 219 222
f 231 156 161
f 231 161 166
f 231 166 143
f 231 225 156
f 234 231 237
f 234 225 231
f 239 242 245
f 249 251 242
f 242 251 245
f 255 251 249
f 257 260 248
f 248 260 254
f 241 262 247
f 262 256 247
f 266 263 240
f 240 263 243
f 244 268 238
f 268 265 238
f 270 264 267
f 270 273 264
f 273 258 264
f 273 261 258
f 275 278 281
f 275 281 284
f 287 290 293
f 297 275 284
f 269 287 293
f 300 275 297
f 303 300 297
f 246 252 303
f 306 246 303
f 306 303 297
f 306 287 269
f 306 269 246
f 293 278 308
f 272 269 308
f 308 269 293
f 275 308 278
f 312 224 315
f 312 215 224
f 316 214 310
f 316 319 220
f 316 220 214
f 295 310 322
f 295 316 310
f 283 316 295
f 296 326 305
f 296 323 326
f 329 277 333
f 280 277 329
f 335 328 332
f 338 328 335
f 341 338 335
f 344 338 341
f 348 352 292
f 348 292 289
f 291 288 355
f 331 350 291
f 282 331 291
f 317 285 282
f 355 317 291
f 291 317 282
f 359 362 321
f 359 321 318
f 365 368 371
f 365 359 318
f 356 368 365
f 356 365 318
f 340 374 377
f 340 346 374
f 380 373 345
f 380 345 343
f 342 382 379
f 342 336 382
f 353 383 337
f 353 337 334
f 353 334 279
f 294 353 279
f 301 250 384
f 384 250 387
f 307 390 271
f 271 390 393
f 250 253 387
f 396 387 253
f 393 399 259
f 259 271 393
f 253 259 399
f 253 399 396
f 276 404 309
f 309 404 392
f 406 299 385
f 385 299 302
f 410 407 389
f 389 407 386
f 412 409 397
f 397 409 388
f 400 49 43
f 43 37 400
f 400 55 49
f 37 33 400
f 33 27 400
f 65 415 72
f 55 415 65
f 400 415 55
f 415 80 72
f 415 83 80
f 415 92 83
f 18 177 27
f 12 180 18
f 18 180 177
f 400 174 398
f 27 174 400
f 177 174 27
f 6 184 12
f 12 184 180
f 174 173 398
f 105 187 6
f 6 187 184
f 173 170 398
f 99 191 105
f 92 191 99
f 105 191 187
f 170 163 398
f 92 194 191
f 163 158 398
f 158 153 398
f 153 413 398
f 208 413 153
f 203 413 208
f 200 413 203
f 196 413 200
f 194 413 196
f 415 413 92
f 92 413 194
f 419 416 395
f 395 416 401
f 403 418 391
f 391 418 394
f 417 408 414
f 414 408 411
f 408 298 405
f 402 274 417
f 417 274 408
f 408 274 298
f 420 423 426
f 420 426 428
f 431 426 434
f 431 428 426
f 437 441 423
f 437 423 420
f 444 434 447
f 444 431 434
f 450 453 441
f 450 441 437
f 456 447 459
f 456 444 447
f 462 464 453
f 462 453 450
f 467 456 459
f 469 467 459
f 472 467 469
f 475 478 480
f 475 462 478
f 475 464 462
f 483 472 469
f 486 475 480
f 488 491 472
f 488 472 483
f 494 497 500
f 494 480 497
f 494 486 480
f 503 506 491
f 503 500 506
f 503 491 488
f 509 494 500
f 509 500 503
f 514 517 443
f 443 517 425
f 424 519 427
f 516 519 424
f 427 522 436
f 519 522 427
f 435 525 449
f 521 525 435
f 448 527 460
f 524 527 448
f 461 530 470
f 528 530 461
f 471 533 484
f 531 533 471
f 485 536 489
f 534 536 485
f 490 540 505
f 537 540 490
f 504 543 511
f 539 543 504
f 510 546 496
f 542 546 510
f 495 548 487
f 545 548 495
f 487 550 476
f 548 550 487
f 477 553 465
f 551 553 477
f 466 556 454
f 554 556 466
f 455 513 442
f 557 513 455
f 440 422 560
f 560 422 563
f 562 430 566
f 421 430 562
f 565 433 569
f 429 433 565
f 568 445 571
f 432 445 568
f 572 458 574
f 446 457 572
f 574 468 576
f 458 468 574
f 576 473 578
f 579 474 582
f 468 473 576
f 474 493 582
f 581 508 585
f 492 508 581
f 584 502 588
f 507 502 584
f 588 499 591
f 501 499 587
f 590 482 594
f 498 482 590
f 593 479 596
f 481 479 593
f 596 463 598
f 479 463 596
f 598 451 600
f 463 451 598
f 602 439 559
f 452 438 601
f 603 606 608
f 603 611 606
f 614 617 606
f 614 606 611
f 620 608 623
f 620 623 626
f 620 603 608
f 629 632 617
f 629 617 614
f 635 638 632
f 635 632 629
f 641 620 626
f 644 646 638
f 644 638 635
f 649 652 641
f 649 641 626
f 654 646 644
f 656 646 654
f 659 662 652
f 659 665 662
f 659 652 649
f 668 654 670
f 668 656 654
f 673 665 659
f 676 678 681
f 676 670 678
f 676 668 670
f 683 686 665
f 683 665 673
f 689 681 686
f 689 676 681
f 689 686 683
f 694 697 634
f 634 697 619
f 618 699 607
f 696 699 618
f 607 702 610
f 699 702 607
f 609 705 625
f 701 705 609
f 624 707 627
f 704 707 624
f 628 710 650
f 708 710 628
f 651 713 660
f 711 713 651
f 661 716 674
f 714 716 661
f 675 720 685
f 717 720 675
f 684 723 691
f 719 723 684
f 690 725 677
f 722 725 690
f 677 727 669
f 725 727 677
f 669 729 657
f 727 729 669
f 658 732 647
f 730 732 658
f 648 735 639
f 733 735 648
f 640 693 633
f 736 693 640
f 631 616 739
f 739 616 742
f 741 613 745
f 615 613 741
f 744 605 748
f 612 605 744
f 747 621 750
f 604 621 747
f 751 642 753
f 622 642 751
f 755 653 757
f 643 653 754
f 757 663 759
f 760 664 763
f 653 663 757
f 664 667 763
f 762 688 766
f 666 688 762
f 765 682 769
f 687 682 765
f 768 680 772
f 682 680 769
f 771 672 775
f 679 672 771
f 774 655 777
f 671 655 774
f 777 645 779
f 655 645 777
f 779 636 781
f 645 636 779
f 783 630 738
f 637 630 782
f 229 784 235
f 229 787 784
f 791 794 796
f 791 799 794
f 801 796 804
f 801 791 796
f 807 805 810
f 807 802 805
f 813 815 818
f 813 811 815
f 813 808 811
f 821 813 818
f 824 817 827
f 824 820 817
f 829 831 786
f 829 826 831
f 829 823 826
f 789 829 786
f 792 217 226
f 797 217 792
f 709 788 230
f 230 712 709
f 709 706 788
f 139 715 230
f 230 715 712
f 706 703 788
f 144 718 139
f 218 718 144
f 139 718 715
f 788 700 828
f 703 700 788
f 218 721 718
f 828 698 822
f 700 698 828
f 698 695 822
f 695 819 822
f 726 798 728
f 724 798 726
f 721 798 724
f 218 798 721
f 734 812 692
f 692 812 695
f 695 812 819
f 728 790 731
f 798 790 728
f 734 806 812
f 731 800 734
f 734 800 806
f 790 800 731
f 357 832 360
f 357 835 832
f 839 843 845
f 840 848 843
f 850 845 853
f 850 839 845
f 856 854 859
f 856 851 854
f 862 860 864
f 862 857 860
f 867 864 870
f 867 862 864
f 872 875 878
f 873 869 876
f 873 866 869
f 881 879 834
f 881 872 878
f 837 881 834
f 846 369 841
f 846 363 369
f 849 529 838
f 855 532 849
f 849 532 529
f 838 526 847
f 529 526 838
f 861 535 855
f 855 535 532
f 526 523 847
f 865 538 861
f 861 538 535
f 523 520 847
f 865 541 538
f 865 871 541
f 520 518 847
f 871 544 541
f 871 880 544
f 880 547 544
f 547 836 549
f 880 836 547
f 836 552 549
f 515 364 518
f 512 364 515
f 518 364 847
f 555 358 512
f 552 358 555
f 512 358 364
f 836 358 552
f 376 349 330
f 376 330 339
f 372 378 381
f 347 381 351
f 375 372 381
f 375 381 347
f 778 809 803
f 776 803 795
f 776 778 803
f 780 814 809
f 780 809 778
f 773 795 793
f 773 776 795
f 737 814 780
f 770 773 793
f 740 814 737
f 740 816 814
f 767 770 793
f 743 816 740
f 743 825 816
f 764 767 793
f 830 825 743
f 830 743 746
f 785 830 746
f 785 746 749
f 785 749 752
f 785 752 756
f 785 756 758
f 227 761 764
f 227 764 793
f 106 227 100
f 93 100 227
f 93 227 221
f 109 227 106
f 1 227 109
f 7 227 1
f 87 93 221
f 76 87 221
f 236 785 758
f 236 7 13
f 236 13 19
f 236 19 22
f 236 761 227
f 236 227 7
f 236 758 761
f 28 236 22
f 34 236 28
f 233 34 40
f 233 236 34
f 320 61 69
f 320 69 76
f 320 76 221
f 361 52 58
f 361 58 61
f 361 61 320
f 370 46 52
f 370 52 361
f 367 40 46
f 367 233 40
f 367 46 370
f 595 597 833
f 599 361 833
f 599 833 597
f 592 595 833
f 558 370 361
f 558 361 599
f 589 833 877
f 589 592 833
f 561 370 558
f 586 877 874
f 586 589 877
f 583 586 874
f 868 583 874
f 842 561 564
f 842 564 567
f 842 567 570
f 842 570 573
f 842 370 561
f 863 583 868
f 863 580 583
f 858 580 863
f 858 575 577
f 858 577 580
f 844 842 573
f 852 575 858
f 852 844 573
f 852 573 575
f 314 327 324
f 314 324 311
f 304 325 313
f 354 313 223
f 354 223 232
f 354 286 304
f 354 304 313
f 366 354 232

